<?xml version="1.0" standalone="no"?>
<!DOCTYPE svg PUBLIC "-//W3C//DTD SVG 1.1//EN" "http://www.w3.org/Graphics/SVG/1.1/DTD/svg11.dtd" >
<!--
2016-4-14: Created with FontForge (http://fontforge.org)
-->
<svg xmlns="http://www.w3.org/2000/svg" xmlns:xlink="http://www.w3.org/1999/xlink" version="1.1">
<metadata>
Created by FontForge 20160407 at Thu Apr 14 16:38:34 2016
 By Paweł Kowalski
Copyright (c) 2016, Pawe&#197;&#130; Kowalski
</metadata>
<defs>
<font id="ovp-icons" horiz-adv-x="512" >
  <font-face 
    font-family="ovp-icons"
    font-weight="400"
    font-stretch="normal"
    units-per-em="512"
    panose-1="2 0 5 3 0 0 0 0 0 0"
    ascent="448"
    descent="-64"
    bbox="-1.14258 -70.1465 535.676 448.563"
    underline-thickness="25.6"
    underline-position="-51.2"
    unicode-range="U+0020-F13D"
  />
    <missing-glyph />
    <glyph glyph-name="space" unicode=" " horiz-adv-x="200" 
 />
    <glyph glyph-name="uniF12D" unicode="&#xf12d;" 
d="M389.596 163.84h-268.361l134.181 -134.181zM133.596 158.72h243.639l-121.819 -121.819zM127.416 161.28h256l-128 -128z" />
    <glyph glyph-name="uniF135" unicode="&#xf135;" 
d="M304 256v192h15.4082c85.8721 0 185.68 -71.9043 191.616 -175.072l0.975586 -16.9277h-208zM336 415.04v-127.04h141.088c-12.9121 70.2236 -77.0879 119.68 -141.088 127.04zM510.384 206.4c0.335938 -4.76855 0.65625 -9.55273 0.65625 -14.4004
c0 -141.152 -114.624 -256 -255.504 -256c-140.912 0 -255.536 114.848 -255.536 256s114.624 256 255.536 256h16.4639v-224h237.184zM240 415.44c-48 -3.26465 -87.9355 -20.6562 -122.08 -47.6328l122.08 -135.888v183.521zM240 192l-146.224 154.368
c-38.2568 -40.208 -61.8408 -94.5605 -61.8408 -154.368c0 -123.52 100.305 -224 223.601 -224c123.28 0 224.464 100.48 224.464 224h-240z" />
    <glyph glyph-name="uniF13A" unicode="&#xf13a;" 
d="M207.968 447.808c114.752 0 207.809 -91.2314 207.809 -203.808c0 -159.232 -207.809 -308.128 -207.809 -308.128s-207.808 138.72 -207.808 308.128c0 112.544 93.0557 203.808 207.808 203.808zM207.968 146.848c54.6885 0 99.04 43.4883 99.04 97.1523
s-44.3516 97.1836 -99.04 97.1523c-54.7197 0 -99.0713 -43.4883 -99.0713 -97.1523s44.3516 -97.1523 99.0713 -97.1523z" />
    <glyph glyph-name="uniF136" unicode="&#xf136;" 
d="M448 256c35.2959 0 64 -28.7041 64 -64s-28.7041 -64 -64 -64h-11.0879c-2.25586 -6.38379 -4.83203 -12.6396 -7.71191 -18.6885l7.80762 -7.82324c12.0479 -12.0479 18.6885 -28.1279 18.6885 -45.248c0 -17.1367 -6.64062 -33.2002 -18.6885 -45.248
c-12.0479 -12.0645 -28.1113 -18.7041 -45.248 -18.7041c-17.1201 0 -33.2002 6.63965 -45.248 18.7041l-7.80762 7.80762c-6.06445 -2.87988 -12.3037 -5.43945 -18.7041 -7.71191v-11.0879c0 -35.2959 -28.7041 -64 -64 -64s-64 28.7041 -64 64v11.0879
c-6.40039 2.27246 -12.6396 4.83203 -18.7041 7.71191l-7.80762 -7.80762c-12.0479 -12.0645 -28.1279 -18.7041 -45.248 -18.7041c-17.1367 0 -33.2158 6.63965 -45.2646 18.7041c-12.0479 12.0479 -18.6719 28.1113 -18.6719 45.248
c0 17.1201 6.62402 33.2002 18.6719 45.248l7.82422 7.80762c-2.87988 6.06445 -5.45605 12.3037 -7.71191 18.7041h-11.0879c-35.2959 0 -64 28.7041 -64 64s28.7041 64 64 64h11.0879c2.25586 6.40039 4.83203 12.6562 7.71191 18.7041l-7.82422 7.80762
c-12.0479 12.0479 -18.6719 28.1279 -18.6719 45.248c0 17.1367 6.62402 33.2158 18.6719 45.2646c12.0488 12.0479 28.1279 18.6875 45.2646 18.6875c17.1201 0 33.2002 -6.63965 45.248 -18.6875l7.80762 -7.82422c6.06445 2.87988 12.3037 5.45605 18.7041 7.71191
v11.0879c0 35.2959 28.7041 64 64 64s64 -28.7041 64 -64v-11.0879c6.40039 -2.25586 12.6396 -4.83203 18.7041 -7.71191l7.80762 7.82422c12.0479 12.0479 28.1279 18.6875 45.248 18.6875c17.1367 0 33.2002 -6.63965 45.248 -18.6875
c12.0479 -12.0488 18.6885 -28.1279 18.6885 -45.2646c0 -17.1201 -6.64062 -33.2002 -18.6885 -45.248l-7.80762 -7.82324c2.87988 -6.04883 5.45605 -12.3047 7.71191 -18.6885h11.0879zM414.384 305.136c6.0166 6.0166 9.3125 14.0479 9.3125 22.624
c0 8.5918 -3.2959 16.624 -9.3125 22.624c-12.0322 12.0166 -33.2158 12.0166 -45.248 0l-24.6396 -24.6396l-10.5605 5.91992c-10.6553 5.95215 -22.1914 10.7041 -34.3037 14.1436l-11.6318 3.2959v34.8965c0 17.6484 -14.3682 32 -32 32c-17.6484 0 -32 -14.3516 -32 -32
v-34.8965l-11.6484 -3.2959c-12.1279 -3.43945 -23.6631 -8.19141 -34.2871 -14.1436l-10.5605 -5.91992l-24.6396 24.6396c-12.0322 12.0166 -33.2324 12.0166 -45.248 0c-6.03223 -6 -9.32812 -14.0322 -9.32812 -22.624c0 -8.57617 3.2959 -16.6074 9.32812 -22.624
l24.624 -24.6396l-5.91992 -10.5605c-5.93652 -10.6074 -10.6885 -22.1592 -14.1279 -34.3037l-3.2959 -11.6318h-34.8965c-17.6484 0 -32 -14.3516 -32 -32s14.3516 -32 32 -32h34.8965l3.2959 -11.6318c3.43945 -12.1445 8.19141 -23.6797 14.1279 -34.3037
l5.91992 -10.5605l-24.624 -24.6396c-6.03223 -6.0166 -9.32812 -14.0479 -9.32812 -22.624c0 -8.5918 3.2959 -16.624 9.32812 -22.624c12.0156 -12.0166 33.2158 -12.0166 45.248 0l24.6396 24.6396l10.5605 -5.91992c10.624 -5.95215 22.1592 -10.7041 34.2871 -14.1436
l11.6484 -3.2959v-34.8965c0 -17.6484 14.3516 -32 32 -32c17.6318 0 32 14.3516 32 32v34.8965l11.6318 3.2959c12.1123 3.43945 23.6484 8.19141 34.3037 14.1592l10.5605 5.9043l24.6396 -24.6396c12.0322 -12.0166 33.2158 -12.0166 45.248 0
c6.0166 6 9.3125 14.0322 9.3125 22.624c0 8.57617 -3.2959 16.6074 -9.3125 22.624l-24.624 24.6396l5.88867 10.5605c5.9834 10.6719 10.7354 22.2236 14.1592 34.3037l3.2959 11.6318h34.8965c17.6318 0 32 14.3516 32 32s-14.3682 32 -32 32h-34.8965l-3.2959 11.6318
c-3.42383 12.0801 -8.17578 23.6318 -14.1592 34.3037l-5.88867 10.5605zM256 96c-52.9443 0 -96 43.0557 -96 96s43.0557 96 96 96s96 -43.0557 96 -96s-43.0557 -96 -96 -96zM256 256c-35.2959 0 -64 -28.7041 -64 -64s28.7041 -64 64 -64s64 28.7041 64 64
s-28.7041 64 -64 64z" />
    <glyph glyph-name="uniF127" unicode="&#xf127;" 
d="M352 -64h-320c-17.6963 0 -32 14.3037 -32 32v256c0 17.6963 14.3037 32 32 32h32v64c0 70.6885 57.3115 128 128 128s128 -57.3115 128 -128v-64h32c17.6963 0 32 -14.3037 32 -32v-256c0 -17.6963 -14.3037 -32 -32 -32zM256 320c0 35.3281 -28.6719 64 -64 64
c-35.3604 0 -64 -28.6719 -64 -64v-64h128v64zM320 192h-256v-192h256v192zM192 128c17.6963 0 32 -14.3037 32 -32s-14.3037 -32 -32 -32s-32 14.3037 -32 32s14.3037 32 32 32z" />
    <glyph glyph-name="uniF12F" unicode="&#xf12f;" 
d="M256 448c141.376 0 256 -114.624 256 -256s-114.624 -256 -256 -256s-256 114.624 -256 256s114.624 256 256 256zM445.12 224c-11.0723 65.7275 -55.3281 120.16 -115.136 145.184c28.3838 -42.3994 47.0713 -91.7754 52.416 -145.184h62.7197zM256 23.6797
c32.96 37.4082 55.3604 84.2881 61.8877 136.32h-123.808c6.52832 -52.0322 28.9277 -98.9121 61.9199 -136.32zM194.08 224h123.808c-6.52734 52.0322 -28.9277 98.9121 -61.8877 136.352c-32.9922 -37.4395 -55.3916 -84.3193 -61.9199 -136.352zM181.984 369.184
c-59.8086 -25.0234 -104.064 -79.4561 -115.137 -145.184h62.7207c5.34375 53.4082 24.0312 102.784 52.416 145.184zM66.8477 160c11.0723 -65.7275 55.3281 -120.16 115.137 -145.184c-28.3848 42.3994 -47.0723 91.7754 -52.416 145.184h-62.7207zM329.984 14.8164
c59.8076 25.0234 104.063 79.4561 115.136 145.184h-62.7197c-5.34473 -53.4082 -24.0322 -102.784 -52.416 -145.184z" />
    <glyph glyph-name="uniF129" unicode="&#xf129;" 
d="M509.187 354.814l-309.334 -309.334c-2.37012 -1.77734 -4.74121 -2.96289 -7.7041 -2.96289s-5.33301 1.18555 -7.70312 2.96289l-181.334 181.334c-4.14844 4.14746 -4.14844 11.2588 0 15.4072l74.667 74.667c4.14746 4.14844 11.2588 4.14844 15.4072 0
l98.9629 -99.5557l226.964 227.556c4.14844 4.14844 11.2588 4.14844 15.4072 0l74.667 -74.667c4.14844 -4.14746 4.14844 -11.2588 0 -15.4072z" />
    <glyph glyph-name="uniF112" unicode="&#xf112;" 
d="M307.2 -64v204.8h204.8v-204.8h-204.8zM307.2 448h204.8v-204.8h-204.8v204.8zM0 140.8h204.8v-204.8h-204.8v204.8zM0 448h204.8v-204.8h-204.8v204.8z" />
    <glyph glyph-name="uniF12A" unicode="&#xf12a;" 
d="M315.853 192.922l182.272 -182.323c16.793 -16.7422 16.793 -43.9814 0 -60.7236c-16.7422 -16.793 -43.9814 -16.793 -60.7236 0l-182.323 182.272l-182.271 -182.272c-16.7939 -16.793 -43.9814 -16.793 -60.7744 0c-16.7939 16.7422 -16.7939 43.9814 0 60.7236
l182.323 182.323l-182.323 182.271c-16.7939 16.7939 -16.7939 43.9814 0 60.7744c16.793 16.7939 43.9805 16.7939 60.7744 0l182.271 -182.271l182.323 182.271c16.7422 16.7939 43.9814 16.7939 60.7236 0c16.793 -16.793 16.793 -43.9805 0 -60.7744z" />
    <glyph glyph-name="uniF10F" unicode="&#xf10f;" 
d="M451.429 166.857h51.4287v-154.286h-504v154.286h51.4287v-102.857h401.143v102.857zM225.143 334.964l-88.7139 -88.7139l-36.3213 36.6426l150.75 150.75l150.75 -150.75l-36.3213 -36.3213l-88.7148 88.7148v-208.607h-51.4287v208.285z" />
    <glyph glyph-name="uniF101" unicode="&#xf101;" 
d="M426.356 40.0059c8.14551 -1.07812 15.5479 -8.5752 16.5234 -16.7334c-0.177734 -8.94531 -7.58105 -16.4424 -16.5234 -16.7324h-135.447c0 -38.54 -31.2783 -69.8184 -69.8184 -69.8184c-38.5391 0 -69.8184 31.2783 -69.8184 69.8184h-135.447
c-8.7832 0.647461 -15.9111 8.32129 -15.9111 17.1279c0 8.80762 7.12793 16.4814 15.9111 17.1289c23.4932 8.89941 42.5605 36.5117 42.5605 61.6348c0 1.43164 -0.0917969 3.75391 -0.204102 5.18164v147.642c1.69434 65.3594 53.8252 133.881 116.364 152.949
c3.47949 21.9385 24.332 39.7441 46.5449 39.7441c22.2139 0 43.0654 -17.8057 46.5459 -39.7441c62.4121 -19.1475 114.23 -87.6582 115.665 -152.926v-147.781c-0.0839844 -1.24707 -0.151367 -3.27148 -0.151367 -4.52051c0 -25.5625 19.3564 -53.7734 43.2061 -62.9707z
M220.393 -29.8125c1.37598 -0.223633 3.62402 -0.404297 5.01758 -0.404297c17.2783 0 31.3018 14.0234 31.3018 31.3018c0 1.5166 -0.214844 3.96094 -0.479492 5.45508h-70.2832c-0.149414 -1.14453 -0.269531 -3.01074 -0.269531 -4.16504
c0 -17.8184 14.4609 -32.2793 32.2793 -32.2793c0.672852 0 1.7627 0.0410156 2.43359 0.0917969z" />
    <glyph glyph-name="uniF122" unicode="&#xf122;" 
d="M377.293 296.243c4.04492 -7.73145 6.70703 -16.4092 6.70703 -24.2432v-304c0 -17.6387 -14.3613 -32 -32 -32h-320c-17.6387 0 -32 14.3613 -32 32v448c0 17.6387 14.3613 32 32 32h160c7.34766 0 15.7441 -2.20117 23.4238 -5.55566l3.27734 1.45996l80 -72.0127
l68.1211 -61.2871v0l11.8789 -10.7002zM351.949 -32l0.0507812 304h-144l-16 16v128h-160v-448h319.949z" />
    <glyph glyph-name="uniF10C" unicode="&#xf10c;" 
d="M432.128 275.968v-303.104c0 -8.19238 -8.19238 -16.3838 -16.3838 -16.3838h-319.488c-8.19141 0 -16.3838 8.19141 -16.3838 16.3838v303.104c0 8.19238 8.19238 16.3838 16.3838 16.3838h108.544c4.09668 0 8.19238 -4.0957 8.19238 -8.19141
s-4.0957 -8.19238 -8.19238 -8.19238h-108.544v-303.104h319.488v303.104h-108.544c-4.09668 0 -8.19238 4.09668 -8.19238 8.19238s4.0957 8.19141 8.19238 8.19141h108.544c10.2402 0 16.3838 -6.14355 16.3838 -16.3838zM194.56 206.336l53.248 -53.248v266.24
c0 4.0957 4.09668 8.19141 8.19238 8.19141s8.19238 -4.0957 8.19238 -8.19141v-266.24l53.248 53.248c2.04785 2.04785 4.0957 2.04785 6.14355 2.04785c4.0957 0 8.19238 -4.0957 8.19238 -8.19141c0 -2.04883 0 -4.09668 -2.04883 -6.14453l-67.584 -67.584
c-2.04785 -2.04785 -4.0957 -2.04785 -6.14355 -2.04785s-4.0957 0 -6.14355 2.04785l-67.584 67.584c-2.04883 2.04785 -2.04883 4.0957 -2.04883 6.14453c0 4.0957 4.09668 8.19141 8.19238 8.19141c2.04785 0 4.0957 0 6.14355 -2.04785z" />
    <glyph glyph-name="uniF12E" unicode="&#xf12e;" 
d="M480 416c17.6641 0 32 -14.3037 32 -32v-416c0 -17.6963 -14.3359 -32 -32 -32h-448c-17.6963 0 -32 14.3037 -32 32v416c0 17.6963 14.3037 32 32 32h96c0 17.6963 14.3037 32 32 32c17.6641 0 32 -14.3037 32 -32h128c0 17.6963 14.3037 32 32 32
c17.6641 0 32 -14.3037 32 -32h96zM448 0v224h-384v-224h384zM448 288v64h-64c0 -17.6963 -14.3359 -32 -32 -32c-17.6963 0 -32 14.3037 -32 32h-128c0 -17.6963 -14.3359 -32 -32 -32c-17.6963 0 -32 14.3037 -32 32h-64v-64h384z" />
    <glyph glyph-name="uniF121" unicode="&#xf121;" 
d="M515.603 405.353v-438.997c0 -0.03125 0.000976562 -0.0830078 0.000976562 -0.114258c0 -20.0859 -16.3018 -36.3877 -36.3877 -36.3877h-0.114258h-439.014h-0.114258c-20.0859 0 -36.3877 16.3018 -36.3877 36.3877
c0 0.03125 0.000976562 0.0830078 0.000976562 0.114258v438.997c0 0.0361328 -0.000976562 0.0947266 -0.000976562 0.130859c0 20.0762 16.2949 36.3711 36.3711 36.3711c0.0361328 0 0.0947266 0 0.130859 -0.000976562h439.014
c0.03125 0.000976562 0.0820312 0.000976562 0.114258 0.000976562c20.0859 0 36.3877 -16.3018 36.3877 -36.3877c0 -0.03125 -0.000976562 -0.0830078 -0.000976562 -0.114258zM497.344 405.353c-0.0791016 9.99023 -8.25195 18.1406 -18.2422 18.1934h-439.014
c-9.99023 -0.0527344 -18.1631 -8.20312 -18.2422 -18.1934v-438.997c0.0527344 -10.0166 8.22559 -18.1973 18.2422 -18.2588h439.014c10.0166 0.0615234 18.1895 8.24219 18.2422 18.2588v438.997zM177.34 259.102v-18.5039
c-0.0527344 -10.0166 -8.22559 -18.1963 -18.2422 -18.2588h-27.5029v-201.011c0 -5.04004 -4.08984 -9.12988 -9.12988 -9.12988c-5.03906 0 -9.12891 4.08984 -9.12891 9.12988v201.027h-27.4863c-10.0254 0.0537109 -18.2061 8.2334 -18.2588 18.2588v18.4873
c0.0527344 10.0254 8.2334 18.2061 18.2588 18.2588h27.4863v72.9873c0 5.03906 4.08984 9.12891 9.12891 9.12891c5.04004 0 9.12988 -4.08984 9.12988 -9.12891v-73.0039h27.5029c10.0078 -0.0615234 18.1807 -8.23438 18.2422 -18.2422zM159.098 259.102h-73.248
v-18.5039h73.248v18.5039zM314.331 131.094v-18.5039v-0.0654297c0 -10.0342 -8.14355 -18.1768 -18.1777 -18.1768h-0.0654297h-27.2412v-73.0195c0 -5.10742 -4.14453 -9.25195 -9.25195 -9.25195s-9.25195 4.14453 -9.25195 9.25195v73.0352h-27.2412h-0.0654297
c-10.043 0 -18.1934 8.15137 -18.1934 18.1943v0.0488281v18.5029v0.0498047c0 10.043 8.15039 18.1934 18.1934 18.1934h0.0654297h27.2412v200.995c0 5.10645 4.14453 9.25098 9.25195 9.25098s9.25195 -4.14453 9.25195 -9.25098v-201.012h27.2412h0.0654297
c10.0342 0 18.1777 -8.14355 18.1777 -18.1768v-0.0498047v-0.015625zM296.088 131.094h-72.9863v-18.5039h73.0029v18.5195zM451.599 222.388v-18.2744c-0.0527344 -10.0264 -8.2334 -18.2061 -18.2588 -18.2598h-27.4863v-164.51
c0.00488281 -0.105469 0.0078125 -0.27832 0.0078125 -0.384766c0 -5.04004 -4.08984 -9.12988 -9.12891 -9.12988s-9.12988 4.08984 -9.12988 9.12988c0 0.106445 0.00390625 0.279297 0.00878906 0.384766v164.51h-27.5195
c-10.0254 0.0537109 -18.1982 8.2334 -18.2422 18.2598v18.2422v0.0654297c0 10.043 8.15039 18.1934 18.1934 18.1934h0.0488281h27.5195v109.733c-0.00488281 0.106445 -0.00878906 0.279297 -0.00878906 0.385742c0 5.03906 4.09082 9.12891 9.12988 9.12891
s9.12891 -4.08984 9.12891 -9.12891c0 -0.106445 -0.00292969 -0.279297 -0.0078125 -0.385742v-109.75h27.5029h0.015625c10.0527 0 18.2109 -8.15723 18.2109 -18.21c0 -0.00878906 -0.000976562 -0.0234375 -0.000976562 -0.0322266zM433.34 222.388h-73.248v-18.2744
h73.248v18.2422v0.0322266z" />
    <glyph glyph-name="uniF113" unicode="&#xf113;" 
d="M256.466 413.091c-121.914 -0.0507812 -220.858 -99.0371 -220.858 -220.951v-0.139648c0 -122.042 99.0488 -221.091 221.091 -221.091s221.091 99.0488 221.091 221.091s-99.0488 221.091 -221.091 221.091h-0.232422zM256 448c141.312 0 256 -114.688 256 -256
s-114.688 -256 -256 -256s-256 114.688 -256 256s114.688 256 256 256zM232.262 75.6367v46.5449h46.7783v-46.5449h-46.7783zM230.865 215.528v0.0234375h-38.6328c0.233398 10.8916 -0.464844 22.458 0.46582 32.1396c0.203125 9.84668 5.83398 23.6719 12.5674 30.8604
c4.875 5.58203 14.5713 11.9111 21.6436 14.126c5.48047 2.29688 14.75 4.16113 20.6924 4.16113c0.390625 0 1.02539 -0.0078125 1.41699 -0.0185547c2.36719 0.230469 6.21875 0.417969 8.59766 0.417969c8.82422 0 22.6973 -2.50195 30.9658 -5.58398
c6.57617 -2.69141 15.2295 -9.59375 19.3164 -15.4072c4.72949 -4.37695 10.3594 -12.8428 12.5674 -18.8975c2.04297 -5.02344 3.81543 -13.5 3.95605 -18.9209c0.00488281 -0.333008 0.00976562 -0.874023 0.00976562 -1.20801
c0 -4.95117 -0.942383 -12.876 -2.10449 -17.6895c-1.0625 -4.08008 -3.66895 -10.3359 -5.81836 -13.9629c-1.92383 -3.0957 -5.57324 -7.7041 -8.14551 -10.2871c-2.49023 -2.37988 -6.76465 -5.9668 -9.54102 -8.00586
c-3.02637 -2.4668 -6.28418 -4.79395 -9.54199 -7.12109c-2.64648 -1.84766 -6.6084 -5.23633 -8.84375 -7.56348c-2.29199 -2.2666 -5.52344 -6.33301 -7.21484 -9.07617c-1.75781 -2.98535 -3.53027 -8.19824 -3.95605 -11.6367v-5.58594h-30.0225v7.79688
c-0.232422 20.6426 -2.32715 28.0664 23.9717 54.3184c2.32715 2.32715 4.88672 4.46875 6.98145 6.98145c3.72754 4.42578 6.75195 12.7139 6.75195 18.5c0 0.116211 -0.000976562 0.304688 -0.00292969 0.420898c0.0517578 0.624023 0.0947266 1.6377 0.0947266 2.2627
c0 5.80859 -3.1709 14.0117 -7.07617 18.3105c-4.03223 3.70312 -11.7471 6.70801 -17.2217 6.70801c-0.450195 0 -1.18066 -0.0234375 -1.62988 -0.0517578c-2.89551 -0.0507812 -6.85742 -1.80273 -8.84277 -3.91016
c-2.93945 -2.00488 -6.69336 -6.17578 -8.37891 -9.30859c-0.717773 -2.2207 -1.30078 -5.91699 -1.30078 -8.25098c0 -0.75 0.0615234 -1.96484 0.137695 -2.71094c-1.01855 -5.98145 -1.85254 -15.7617 -1.8623 -21.8301z" />
    <glyph glyph-name="uniF11F" unicode="&#xf11f;" 
d="M473.088 -35.3281v-10.2402h-434.176v10.2402c0 73.7285 67.584 96.2559 100.352 106.496c32.7686 10.2402 55.2959 18.4316 55.2959 61.4404c0 43.0078 -34.8154 69.6318 -36.8633 73.7275c0 0 -16.3848 22.5283 -2.04785 55.2959
c-6.14453 14.3359 -20.4805 59.3926 -4.09668 100.353c12.2881 22.5273 30.7207 40.96 61.4404 53.248c0 0 28.6719 14.3359 61.4395 14.3359c26.624 0 63.4883 -10.2402 79.8721 -57.3447c6.14453 -8.19141 36.8643 -55.2959 12.2881 -112.64
c4.09668 -8.19238 10.2402 -28.6719 -2.04785 -53.248c-2.04785 -4.0957 -38.9121 -30.7197 -38.9121 -73.7275c0 -34.8164 8.19238 -38.9121 28.6719 -51.2002c10.2402 -6.14453 22.5283 -14.3359 40.96 -22.5283c30.7207 -16.3838 75.7764 -36.8643 77.8242 -94.208z
M452.608 -27.1357c-6.14453 38.9121 -36.8643 53.248 -65.5361 65.5361c-16.3838 8.19141 -30.7207 16.3838 -40.96 22.5273c-24.5762 14.3359 -38.9121 24.5762 -38.9121 67.584c0 47.1045 32.7676 77.8242 40.96 83.9688c10.2402 22.5273 0 36.8633 0 38.9111
l-2.04785 4.09668v8.19141c26.624 53.248 -8.19238 98.3047 -10.2402 100.353c-10.2402 32.7676 -30.7197 47.1035 -61.4404 47.1035c-26.624 0 -53.248 -12.2881 -53.248 -12.2881c-24.5752 -10.2393 -40.96 -24.5752 -49.1514 -45.0557
c-18.4326 -43.0078 4.0957 -90.1123 4.0957 -90.1123l2.04785 -4.0957l-2.04785 -4.0957c-10.2402 -20.4805 -4.0957 -34.8164 -2.04785 -38.9121c8.19238 -6.14453 40.96 -36.8643 40.96 -86.0166c0 -57.3438 -36.8643 -69.6318 -69.6318 -79.8711
c-28.6719 -10.2402 -81.9199 -26.624 -88.0645 -77.8242h395.265z" />
    <glyph glyph-name="uniF10B" unicode="&#xf10b;" 
d="M471.579 314.61v-277.558c0 -17.5156 -13.4736 -30.9893 -30.9893 -30.9893h-369.18c-17.5156 0 -30.9893 13.4736 -30.9893 30.9893v308.547c0 17.5166 13.4736 30.9902 30.9893 30.9902h84.8848c37.7266 0 45.8105 -30.9902 76.7998 -30.9902h207.495
c17.5156 0 30.9893 -13.4736 30.9893 -30.9893zM456.758 314.61c0 8.08398 -6.73633 14.8213 -14.8213 14.8213h-208.842c-39.0732 0 -45.8105 30.9893 -76.7998 30.9893h-84.8848c-8.08398 0 -14.8203 -6.73633 -14.8203 -14.8213v-45.8105h400.168v14.8213z
M456.758 284.969h-401.516v-246.568c0 -8.08496 6.73633 -14.8213 14.8213 -14.8213h369.179c8.08398 0 14.8213 6.73633 14.8213 14.8213v246.568h2.69434z" />
    <glyph glyph-name="uniF110" unicode="&#xf110;" 
d="M497.664 187.904c0 -34.8164 -126.976 -167.937 -235.521 -167.937c-108.544 0 -235.52 133.12 -235.52 167.937c0 34.8154 124.928 167.936 235.52 167.936c110.593 0 235.521 -133.12 235.521 -167.936zM151.552 269.824
c-59.3916 -26.624 -106.496 -67.584 -106.496 -81.9199c0 -24.5762 116.736 -108.544 217.088 -108.544c100.353 0 217.089 83.9678 217.089 108.544c0 16.3838 -47.1045 55.2959 -106.496 81.9199zM262.144 339.456c-28.6719 0 -59.3916 -47.1045 -88.0635 -59.3916z
M348.16 280.064zM34.8164 192c0 0 77.8232 155.648 227.327 159.744c149.505 4.0957 219.137 -149.504 225.28 -159.744c0 0 -38.9121 -139.264 -208.896 -165.888c0 -2.04785 -176.128 57.3438 -243.712 165.888zM149.504 187.904
c0 -62.21 50.4307 -112.641 112.64 -112.641c62.21 0 112.641 50.4307 112.641 112.641c0 62.209 -50.4307 112.64 -112.641 112.64c-62.209 0 -112.64 -50.4307 -112.64 -112.64zM208.896 187.904c0 29.4082 23.8398 53.248 53.2471 53.248
c29.4082 0 53.248 -23.8398 53.248 -53.248s-23.8398 -53.248 -53.248 -53.248c-29.4072 0 -53.2471 23.8398 -53.2471 53.248z" />
    <glyph glyph-name="uniF10E" unicode="&#xf10e;" 
d="M232.229 297.691l96 -87.9912c4.9375 -4.57129 7.75293 -10.9707 7.75293 -17.7002s-2.81543 -13.1289 -7.75293 -17.7002l-96 -87.9912l-0.0732422 0.0732422c-4.27832 -3.9502 -9.91113 -6.36328 -16.1641 -6.36328c-13.2393 0 -23.9912 10.7148 -23.9912 23.9902
c0 6.98535 3.03516 13.2393 7.82617 17.6279l-0.0361328 0.0361328l76.6904 70.3271l-76.6904 70.29l0.0361328 0.0732422c-4.79102 4.38867 -7.82617 10.6426 -7.82617 17.6279c0 13.2754 10.752 24.0273 23.9912 24.0273c6.25293 0 11.8857 -2.4502 16.1641 -6.40039z
M256 448c141.385 0 256 -114.615 256 -256s-114.615 -256 -256 -256s-256 114.615 -256 256s114.615 256 256 256zM256 -15.9814c114.688 0 207.981 93.293 207.981 207.981s-93.293 207.981 -207.981 207.981s-208.019 -93.293 -208.019 -207.981
s93.3301 -207.981 208.019 -207.981z" />
    <glyph glyph-name="uniF105" unicode="&#xf105;" 
d="M256 -64c-141.385 0 -256 114.615 -256 256s114.615 256 256 256s256 -114.615 256 -256s-114.615 -256 -256 -256zM256 384c-106.021 0 -192 -85.9795 -192 -192s85.9795 -192 192 -192s192 85.9795 192 192s-85.9795 192 -192 192zM296.887 105.874l-63.4883 63.4883
c-2.96191 2.92578 -5.30273 6.47266 -6.91113 10.4229c-1.64648 3.91309 -2.4873 8.0459 -2.4873 12.2148v128c0 17.7002 14.2998 32 32 32s32 -14.2998 32 -32v-114.761l54.8936 -54.8574c12.5078 -12.5439 12.3613 -32.6221 -0.146484 -45.1289
c-12.5439 -12.5439 -33.3525 -11.8857 -45.8604 0.621094z" />
    <glyph glyph-name="uniF100" unicode="&#xf100;" 
d="M426.356 40.0059c8.14551 -1.07812 15.5479 -8.5752 16.5234 -16.7334c-0.177734 -8.94531 -7.58105 -16.4424 -16.5234 -16.7324h-135.447c0 -38.54 -31.2783 -69.8184 -69.8184 -69.8184c-38.5391 0 -69.8184 31.2783 -69.8184 69.8184h-135.447
c-8.7832 0.647461 -15.9111 8.32129 -15.9111 17.1279c0 8.80762 7.12793 16.4814 15.9111 17.1289c23.4932 8.89941 42.5605 36.5117 42.5605 61.6348c0 1.43164 -0.0917969 3.75391 -0.204102 5.18164v147.642c1.69434 65.3594 53.8252 133.881 116.364 152.949
c3.47949 21.9385 24.332 39.7441 46.5449 39.7441c22.2139 0 43.0654 -17.8057 46.5459 -39.7441c62.4121 -19.1475 114.23 -87.6582 115.665 -152.926v-147.781c-0.0839844 -1.24707 -0.151367 -3.27148 -0.151367 -4.52051c0 -25.5625 19.3564 -53.7734 43.2061 -62.9707z
M220.393 -29.8125c1.37598 -0.223633 3.62402 -0.404297 5.01758 -0.404297c17.2783 0 31.3018 14.0234 31.3018 31.3018c0 1.5166 -0.214844 3.96094 -0.479492 5.45508h-70.2832c-0.149414 -1.14453 -0.269531 -3.01074 -0.269531 -4.16504
c0 -17.8184 14.4609 -32.2793 32.2793 -32.2793c0.672852 0 1.7627 0.0410156 2.43359 0.0917969zM70.5166 40.7275v-0.046875h301.148c-12.6016 15.6523 -22.8291 44.6641 -22.8291 64.7588c0 0.59375 0.00976562 1.55664 0.0224609 2.15039v147.643
c-0.375 50.4033 -39.1602 105.193 -86.5752 122.298c-4.39551 0.411133 -11.5459 0.745117 -15.9609 0.745117c-3.82324 0 -10.0176 -0.250977 -13.8281 -0.558594v21.5264c0.228516 0.876953 0.413086 2.32324 0.413086 3.22852
c0 6.54297 -5.29395 12.2695 -11.8164 12.7832c-6.85645 -0.368164 -12.4219 -6.23926 -12.4219 -13.1064c0 -0.805664 0.143555 -2.0957 0.320312 -2.88184v-20.8984c-2.62305 0.154297 -6.88477 0.279297 -9.5127 0.279297
c-5.42383 0 -14.1943 -0.532227 -19.5781 -1.1875c-47.4902 -17.0059 -86.5889 -71.7432 -87.2734 -122.182v-147.642c0.0273438 -0.873047 0.0488281 -2.29102 0.0488281 -3.16406c0 -19.7197 -9.92676 -48.2773 -22.1572 -63.7451z" />
    <glyph glyph-name="uniF114" unicode="&#xf114;" 
d="M256 448c141.312 0 256 -114.688 256 -256s-114.688 -256 -256 -256s-256 114.688 -256 256s114.688 256 256 256zM232.262 75.6367h46.7783v46.5449h-46.7783v-46.5449zM230.865 215.528c0.00976562 6.06836 0.84375 15.8486 1.8623 21.8301
c-0.0761719 0.746094 -0.137695 1.96094 -0.137695 2.71094c0 2.33398 0.583008 6.03027 1.30078 8.25098c1.68555 3.13281 5.43945 7.30371 8.37891 9.30859c1.98535 2.10742 5.94727 3.85938 8.84277 3.91016c0.449219 0.0283203 1.17969 0.0517578 1.62988 0.0517578
c5.47461 0 13.1895 -3.00488 17.2217 -6.70801c3.90527 -4.29883 7.07617 -12.502 7.07617 -18.3105c0 -0.625 -0.0429688 -1.63867 -0.0947266 -2.2627c0.00195312 -0.116211 0.00292969 -0.304688 0.00292969 -0.420898c0 -5.78613 -3.02441 -14.0742 -6.75195 -18.5
c-2.09473 -2.5127 -4.6543 -4.6543 -6.98145 -6.98145c-26.2988 -26.252 -24.2041 -33.6758 -23.9717 -54.3184v-7.79688h30.0225v5.58594c0.425781 3.43848 2.19824 8.65137 3.95605 11.6367c1.69141 2.74316 4.92285 6.80957 7.21484 9.07617
c2.23535 2.32715 6.19727 5.71582 8.84375 7.56348c3.25781 2.32715 6.51562 4.6543 9.54199 7.12109c2.77637 2.03906 7.05078 5.62598 9.54102 8.00586c2.57227 2.58301 6.22168 7.19141 8.14551 10.2871c2.14941 3.62695 4.75586 9.88281 5.81836 13.9629
c1.16211 4.81348 2.10449 12.7383 2.10449 17.6895c0 0.333984 -0.00488281 0.875 -0.00976562 1.20801c-0.140625 5.4209 -1.91309 13.8975 -3.95605 18.9209c-2.20801 6.05469 -7.83789 14.5205 -12.5674 18.8975c-4.08691 5.81348 -12.7402 12.7158 -19.3164 15.4072
c-8.26855 3.08203 -22.1416 5.58398 -30.9658 5.58398c-2.37891 0 -6.23047 -0.1875 -8.59766 -0.417969c-0.391602 0.0107422 -1.02637 0.0185547 -1.41699 0.0185547c-5.94238 0 -15.2119 -1.86426 -20.6924 -4.16113
c-7.07227 -2.21484 -16.7686 -8.54395 -21.6436 -14.126c-6.7334 -7.18848 -12.3643 -21.0137 -12.5674 -30.8604c-0.930664 -9.68164 -0.232422 -21.248 -0.46582 -32.1396h38.6328v-0.0234375z" />
    <glyph glyph-name="uniF12C" unicode="&#xf12c;" 
d="M389.596 163.84h-268.361l134.181 -134.181zM133.596 158.72h243.639l-121.819 -121.819zM127.416 161.28h256l-128 -128zM121.819 220.16h268.361l-134.181 134.181zM377.819 225.28h-243.639l121.819 121.819zM384 222.72h-256l128 128z" />
    <glyph glyph-name="uniF133" unicode="&#xf133;" 
d="M192 140.8c-70.8096 0 -128.18 57.293 -128.18 128v51.2002c0 70.707 57.3701 128 128.18 128s128.18 -57.293 128.18 -128v-51.2002c0 -70.707 -57.3701 -128 -128.18 -128zM383.77 3.22559c-52.6084 -41.9844 -119.193 -67.2256 -191.77 -67.2256
s-139.161 25.2412 -191.77 67.2256c24.0127 33.126 79.9492 86.374 191.77 86.374c111.872 0 167.782 -53.2988 191.77 -86.374z" />
    <glyph glyph-name="uniF111" unicode="&#xf111;" 
d="M491.52 329.216v-303.104c0 -18.4326 -14.3359 -34.8164 -32.7676 -34.8164h-403.456c-18.4316 0 -32.7676 14.3359 -32.7676 34.8164v335.872c0 18.4316 14.3359 32.7676 32.7676 32.7676h92.1602c40.96 0 51.2002 -32.7676 83.9678 -32.7676h227.328
c18.4316 0 32.7676 -14.3359 32.7676 -32.7686zM475.136 329.216c0 10.2402 -8.19141 16.3838 -16.3838 16.3838h-227.328c-43.0078 0 -51.2002 32.7686 -83.9678 32.7686h-92.1602c-8.19238 0 -16.3838 -8.19238 -16.3838 -16.3838v-51.2002h438.271v18.4316h-2.04785z
M475.136 294.4h-438.271v-268.288c0 -10.2402 8.19141 -16.3848 16.3838 -16.3848h403.456c8.19238 0 16.3838 8.19238 16.3838 16.3848v268.288h2.04785z" />
    <glyph glyph-name="uniF116" unicode="&#xf116;" 
d="M30.2734 32.3643c-1.03125 -0.147461 -2.71289 -0.266602 -3.75488 -0.266602c-14.6846 0 -26.6025 11.918 -26.6025 26.6035c0 1.05469 0.12207 2.75977 0.273438 3.80371v218.764c-0.0283203 0.234375 -0.0507812 0.616211 -0.0507812 0.852539
c0 1.47559 0.785156 3.57812 1.75391 4.69141l130.364 157.781v0c1.0459 1.62891 3.41895 3.32422 5.29785 3.78516h234.62c1.82324 -0.539062 4.19629 -2.23438 5.29785 -3.78516v0l132.446 -157.781c1.07324 -1.07812 1.94434 -3.18848 1.94434 -4.71094
c0 -0.230469 -0.0234375 -0.603516 -0.0527344 -0.833008v-218.744c0.0654297 -0.702148 0.118164 -1.84375 0.118164 -2.54883c0 -15.2705 -12.3926 -27.6631 -27.6631 -27.6631c-0.544922 0 -1.42773 0.0322266 -1.97168 0.0703125h-452.021v-0.0185547zM35.0039 286.889
h152.502c3.75391 -1.13574 6.89062 -5.23828 7.00098 -9.1582v0c3.59473 -29.5547 31.7871 -44.6914 61.6826 -44.6914c29.8945 0 60.168 14.5508 63.5742 44.1055v0c0.118164 3.99219 3.33887 8.09473 7.18945 9.15723h152.313l-109.552 134.055h-226.862z" />
    <glyph glyph-name="uniF126" unicode="&#xf126;" 
d="M499.2 39.6953c-8.52344 -8.91504 -18.7637 -13.4023 -30.75 -13.4023h-424.9c-11.9863 0 -22.2266 4.4873 -30.75 13.4023c-8.55273 8.91504 -12.7998 19.6064 -12.7998 32.1357v217.299c7.98145 -9.27637 17.1367 -17.5586 27.4678 -24.7568
c65.6865 -46.6523 122.939 -79.3906 147.455 -98.1533c10.3311 -7.98145 18.7031 -14.1855 25.1484 -18.6436c6.44531 -4.45703 15.0293 -9.00488 25.7207 -13.6426c10.6914 -4.66895 20.6904 -6.9873 29.9365 -6.9873h0.271484h0.271484
c9.24609 0 19.2451 2.31836 29.9365 6.9873c10.6914 4.6377 19.2754 9.18555 25.7207 13.6426c6.44531 4.45801 14.8174 10.6621 25.1484 18.6436c30.8398 23.3408 88.2139 56.0488 147.696 98.1533c10.3604 7.4082 19.4258 15.6611 27.2266 24.7568v-217.299
c0 -12.5293 -4.24707 -23.2207 -12.7998 -32.1357zM465.468 319.85c-68.2158 -49.5137 -120.561 -80.3242 -137.246 -92.4609c-1.80664 -1.3252 -7.9502 -5 -13.8535 -9.45703c-5.90332 -4.45801 -10.7822 -6.50586 -14.6973 -9.24609
c-3.88574 -2.77148 -8.61426 -6.62598 -14.1553 -10.0293c-5.51172 -3.40332 -10.752 -5.99414 -15.6318 -7.68066c-4.90918 -1.71582 -9.42676 -2.55957 -13.6123 -2.55957h-0.271484h-0.271484c-4.18555 0 -8.70312 0.84375 -13.6123 2.55957
c-4.87988 1.68652 -10.1201 4.27734 -15.6318 7.68066c-5.54102 3.40332 -10.2695 6.47461 -14.1553 9.24609c-3.91504 2.74023 -8.79395 6.35449 -14.6973 10.8115c-5.90332 4.45801 -9.75781 5.7832 -11.5654 7.1084c-16.5039 12.1377 -40.2666 26.3223 -71.2881 48.79
s-61.8018 40.6895 -67.9756 45.2373c-11.2637 7.98145 -21.8652 18.9141 -31.834 32.8584s-14.9688 31.5928 -14.9688 43.5498c0 14.7881 3.76465 27.1357 11.2939 36.9844c7.5293 9.87891 18.2812 14.8184 32.2559 14.8184h424.9
c11.8057 0 22.0156 -4.45801 30.6289 -13.3721c8.61426 -8.91504 12.9209 -19.6367 12.9209 -32.166c0 -14.9688 -4.45703 -34.0029 -13.3418 -47.6768c-8.88477 -13.6426 -19.9385 -25.2988 -33.1904 -34.9961z" />
    <glyph glyph-name="uniF132" unicode="&#xf132;" 
d="M408.781 9.63867c-3.30273 -3.63574 -6.75879 -7.10449 -10.292 -10.5088l-143.475 193.728l57.958 77.21c3.39258 3.87793 -0.882812 9.47168 -2.50879 11.6221c-3.44336 4.48047 -7.76953 6.75879 -12.8643 6.75879c-5.70801 0 -10.9688 -3.63574 -15.4746 -10.6113
l-45.7217 -60.4414l-42.8926 60.5312c-2.29199 2.93066 -4.94141 5.19629 -7.87207 6.70703c-2.98242 1.52344 -6.0166 2.29102 -9.02441 2.29102c-5.5293 0 -10.1123 -2.21484 -13.248 -6.41309c-2.64941 -3.54492 -4.88965 -7.27051 -3.31543 -10.4697l0.141602 -0.294922
l56.8057 -76.877l-63.1289 -86.3105c-3.37988 -3.87793 0.742188 -9.36914 2.11133 -11.1865c3.13672 -4.19824 7.46289 -6.42578 12.5186 -6.42578c3.02051 0 5.79883 0.652344 8.29492 1.91992c2.52148 1.30566 5.14551 3.91699 7.94824 7.94922l50.8799 71.0137
l139.085 -190.63c-12.5947 -9.10059 -26.2656 -16.9727 -40.9219 -23.5391c-29.1064 -13.0439 -61.9902 -19.6611 -97.7529 -19.6611c-35.251 0 -67.7637 6.48926 -96.627 19.2764c-28.8643 12.7744 -53.9785 30.8232 -74.6377 53.6064
c-20.6455 22.7588 -36.7871 49.9717 -47.9736 80.9092c-11.1621 30.874 -16.832 64.8828 -16.832 101.068c0 36.2119 5.78516 70.3496 17.2031 101.466c11.4297 31.168 27.6865 58.624 48.333 81.6387c20.6455 23.0273 45.8877 41.3184 75.0078 54.374
c29.1074 13.0439 61.7471 19.6611 97.0107 19.6611c35.2383 0 67.8662 -6.47656 96.9854 -19.2637c29.0947 -12.8008 54.2217 -30.8359 74.6631 -53.6455c20.4033 -22.7705 36.416 -50.1113 47.5898 -81.2666c11.1748 -31.1426 16.832 -65.2676 16.832 -101.44
c0 -36.1982 -5.65723 -70.3232 -16.832 -101.439c-11.1738 -31.1807 -27.3145 -58.5215 -47.9736 -81.3057z" />
    <glyph glyph-name="uniF13D" unicode="&#xf13d;" 
d="M509.127 237.511l-124.416 -123.704l31.2891 -165.348c0.0634766 -0.433594 0.114258 -1.14062 0.114258 -1.57812c0 -3.22754 -2.17871 -7.29883 -4.86426 -9.08887c-1.48926 -0.984375 -4.14551 -1.7832 -5.93066 -1.7832s-4.44238 0.798828 -5.93066 1.7832
l-143.417 92.4443l-143.274 -92.4727c-1.48926 -0.984375 -4.14648 -1.7832 -5.93066 -1.7832c-1.78516 0 -4.44238 0.798828 -5.93066 1.7832c-2.68555 1.79004 -4.86523 5.86133 -4.86523 9.08887c0 0.4375 0.0517578 1.14453 0.114258 1.57812l31.2891 165.347
l-124.558 123.733c-1.62695 1.88379 -2.94629 5.43164 -2.94629 7.91992c0 1.15234 0.3125 2.96973 0.699219 4.05566c1.59277 3.5957 6.07812 6.51367 10.0117 6.51367h0.0576172h163.555l71.709 184.889c1.40137 3.91406 5.91211 7.09082 10.0693 7.09082
s8.66797 -3.17676 10.0693 -7.09082l71.8223 -185.003h163.556c0.015625 0.000976562 0.0410156 0.000976562 0.0576172 0.000976562c3.93262 0 8.41797 -2.91895 10.0117 -6.51465c0.351562 -1.04199 0.637695 -2.78027 0.637695 -3.88086
c0 -2.51367 -1.34375 -6.08887 -2.99902 -7.98047z" />
    <glyph glyph-name="uniF120" unicode="&#xf120;" 
d="M402.256 -17.0078v-9.50391h-402.256v9.26367c0 68 63.5039 88.752 94 98.9922c31.248 8.99219 52.2559 17.7441 52.2559 56.4961c-1.28516 23.0225 -16.9609 53.3711 -34.9922 67.7441c-4.22852 7.1377 -7.66016 19.665 -7.66016 27.9619
c0 6.73047 2.31348 17.1406 5.16406 23.2373c-5.63184 13.5742 -10.2021 36.5176 -10.2021 51.2129c0 11.8281 3.00098 30.5449 6.69824 41.7793c9.00781 21.2617 33.9805 44.7803 55.7441 52.4961c14.8984 6.91602 40.3164 12.8877 56.7363 13.3281
c0.798828 0.03125 2.0957 0.0566406 2.89551 0.0566406c30.9385 0 62.6777 -24.2168 70.8486 -54.0566c11.1533 -15.3711 20.2051 -43.2607 20.2051 -62.252c0 -12.3242 -4.03418 -31.4785 -9.00488 -42.7559c2.49219 -6.01953 4.51562 -16.1924 4.51562 -22.708
c0 -7.89551 -2.91895 -20.0078 -6.51562 -27.0361c-2 -4.25586 -35.7441 -28.2559 -35.7441 -69.0078c0 -32 8.49609 -36.7998 26.752 -47.5039c9.74414 -5.24805 20.4961 -12.8008 37.5039 -20.4961c30.3037 -13.7441 72.0479 -32.4961 73.0557 -87.248zM383.248 -8
c-4.99219 36 -34.9922 49.7441 -61.7441 61.7441c-11.0068 5.29688 -28.3672 14.8164 -38.752 21.248c-22.2559 12.9922 -36 22.752 -36 63.248c0.895508 26.4297 18.0342 61.71 38.2559 78.752c2.19629 4.53418 3.97949 12.3027 3.97949 17.3408
c0 5.20605 -1.89746 13.207 -4.23535 17.8594l-2.75195 4.25586l2.25586 4.49609c4.84277 10.1221 8.77246 27.4443 8.77246 38.666c0 16.4395 -7.9873 40.4688 -17.8281 53.6377c-5.25 24.5908 -29.918 44.5488 -55.0635 44.5488
c-0.673828 0 -1.76758 -0.0234375 -2.44043 -0.0527344c-14.2383 -0.53418 -36.3018 -5.7959 -49.248 -11.7441c-18.001 -6.02051 -38.6943 -25.0596 -46.1924 -42.4961c-15.248 -37.7441 4.7998 -82.2559 4.7998 -82.752l1.74414 -3.74414l-1.74414 -4
c-2.77051 -4.86133 -5.01855 -13.3467 -5.01855 -18.9424c0 -4.80762 1.68945 -12.2275 3.77051 -16.5615c20.5557 -17.0508 37.917 -52.5537 38.752 -79.248c0 -53.0078 -34 -63.7441 -64.752 -74c-26.752 -8.75195 -75.5039 -24.752 -80.9912 -72.2559h364.432z
M512 9.74414h-95.5039c-1.40918 5.4043 -4.65625 13.8047 -7.24805 18.752h83.2002c-4.7998 29.248 -29.5039 40.4961 -51.7441 50.4961c-9.50977 4.62988 -24.5195 12.916 -33.5039 18.4961c-16.7041 9.71191 -31.2002 18.2559 -31.2002 55.5039
c0.75293 23.04 15.54 53.9482 33.0078 68.9922c1.77148 3.63477 3.20996 9.86816 3.20996 13.9121c0 4.36328 -1.66016 11.0332 -3.70605 14.8877l-2.49609 4.25586l2.25684 4.7998c4.1748 8.55078 7.56348 23.2139 7.56348 32.7295
c0 13.9238 -6.85742 34.2051 -15.3076 45.2705c-4.32324 20.8496 -25.1123 37.7715 -46.4053 37.7715c-0.44043 0 -1.15527 -0.0126953 -1.59473 -0.0273438c-12.0166 -0.432617 -30.6104 -4.91211 -41.5039 -10
c-0.00488281 0 -0.0126953 0.000976562 -0.0166016 0.000976562c-0.132812 0 -0.240234 -0.107422 -0.240234 -0.240234v-0.0166016c-0.681641 1.41406 -2.02148 3.56445 -2.99121 4.7998c-1.19922 3.35352 -3.5498 8.61426 -5.24805 11.7441
c0.211914 0.270508 0.664062 0.493164 1.00781 0.496094c12.8281 6.15332 34.7842 11.4141 49.0078 11.7441c0.6875 0.0263672 1.80371 0.0478516 2.49219 0.0478516c27.1514 0 54.8213 -21.3027 61.7637 -47.5518c9.69336 -13.4258 17.5596 -37.7617 17.5596 -54.3213
c0 -10.5557 -3.38672 -26.9912 -7.55957 -36.6875c2.00586 -5.18945 3.63281 -13.916 3.63281 -19.4795c0 -6.99512 -2.52344 -17.7578 -5.63281 -24.0244c-2 -4.25586 -30.4961 -23.7441 -30.4961 -59.0078c0 -26.4961 6.49609 -30.2559 22.2559 -39.5039
c8.53125 -5.38184 22.8672 -13.2236 32 -17.5039c26.2568 -12 62.4961 -28.4961 63.248 -76.7998z" />
    <glyph glyph-name="uniF11A" unicode="&#xf11a;" 
d="M497.91 -49.9102c-18.752 -18.749 -49.1289 -18.749 -67.8818 0l-85.3047 85.3086c-34.8516 -22.3584 -76.2627 -35.373 -120.736 -35.373c-123.702 0 -223.987 100.282 -223.987 223.987c0 123.702 100.285 223.987 223.987 223.987s223.987 -100.285 223.987 -223.987
c0 -44.4736 -13.0146 -85.8848 -35.373 -120.736l85.3086 -85.3047c18.749 -18.7529 18.749 -49.1328 0 -67.8818zM431.975 224.013c0 114.867 -93.1172 207.987 -207.987 207.987s-207.987 -93.1201 -207.987 -207.987s93.1172 -207.99 207.987 -207.99
s207.987 93.123 207.987 207.99zM486.599 6.65625l-83.2158 83.2129c-12.8516 -17.1455 -28.0996 -32.3936 -45.2549 -45.2451l83.2227 -83.2227c12.4893 -12.4893 32.749 -12.499 45.248 0s12.499 32.7646 0 45.2549zM223.987 32.0225
c-106.032 0 -191.99 85.958 -191.99 191.99s85.958 191.99 191.99 191.99s191.99 -85.958 191.99 -191.99s-85.958 -191.99 -191.99 -191.99zM223.987 400c-97.1973 0 -175.99 -78.79 -175.99 -175.987c0 -97.1963 78.793 -175.99 175.99 -175.99
c97.1963 0 175.99 78.7939 175.99 175.99c0 97.1973 -78.7939 175.987 -175.99 175.987zM343.98 224.013c0 66.2686 -53.7246 119.994 -119.993 119.994c-4.42285 0 -8 3.57715 -8 7.99609c0 4.42285 3.57715 8 8 8c75.1035 0 135.993 -60.8857 135.993 -135.99
c0 -4.42188 -3.58008 -8 -8 -8c-4.42188 0 -8 3.57812 -8 8z" />
    <glyph glyph-name="uniF108" unicode="&#xf108;" 
d="M480 -64h-192h-256c-17.6963 0 -32 14.3037 -32 32v448c0 17.6963 14.3037 32 32 32h256c17.6963 0 32 -14.3037 32 -32v-64h160c17.6963 0 32 -14.3037 32 -32v-352c0 -17.6963 -14.3037 -32 -32 -32zM144 -32h32v64h-32v-64zM288 400c0 8.83203 -7.16797 16 -16 16
h-224c-8.83203 0 -16 -7.16797 -16 -16v-416c0 -8.83203 7.16797 -16 16 -16h64v80c0 8.83203 7.16797 16 16 16h64c8.83203 0 16 -7.16797 16 -16v-80h80v432zM480 304c0 8.83203 -7.16797 16 -16 16h-144v-352h144c8.83203 0 16 7.16797 16 16v320zM384 64h32v-32h-32v32z
M384 160h32v-32h-32v32zM384 256h32v-32h-32v32zM192 160h32v-32h-32v32zM192 256h32v-32h-32v32zM192 352h32v-32h-32v32zM96 160h32v-32h-32v32zM96 256h32v-32h-32v32zM96 352h32v-32h-32v32z" />
    <glyph glyph-name="uniF13C" unicode="&#xf13c;" 
d="M253.335 60.3691l-246.993 237.733c-1.52148 1.50098 -2.75684 4.4541 -2.75684 6.59082c0 0.0439453 0.000976562 0.114258 0.00195312 0.158203c0.00683594 4.96875 4.0459 9.00195 9.01465 9.00195c0.0673828 0 0.176758 -0.00195312 0.244141 -0.00390625
c1.97266 -0.0644531 4.76953 -1.18164 6.24414 -2.49414l240.488 -231.783l240.505 231.783c1.47461 1.3125 4.27148 2.42969 6.24414 2.49414c0.0625 0.00195312 0.165039 0.00292969 0.227539 0.00292969c4.96973 0 9.01562 -4.03223 9.03223 -9.00098
c0 -0.0458984 0.000976562 -0.119141 0.000976562 -0.164062c0 -2.13672 -1.23535 -5.08594 -2.75684 -6.58496l-246.993 -237.733c-1.44922 -1.38086 -4.25 -2.50195 -6.25098 -2.50195c-2.00195 0 -4.80273 1.12109 -6.25195 2.50195z" />
    <glyph glyph-name="uniF125" unicode="&#xf125;" 
d="M436.992 373.024c48.3838 -48.3525 75.0078 -112.641 75.0078 -181.024s-26.624 -132.64 -75.0078 -181.024c-48.3203 -48.3516 -112.641 -74.9756 -180.992 -74.9756c-68.3838 0 -132.64 26.624 -181.024 74.9756c-48.3516 48.3848 -74.9756 112.641 -74.9756 181.024
s26.624 132.672 74.9756 181.024c48.3525 48.3516 112.641 74.9756 181.024 74.9756c68.3516 0 132.64 -26.624 180.992 -74.9756zM54.8477 192c0 -44.4805 14.5283 -86.5918 40.9922 -121.376l281.568 281.536c-34.8486 26.4639 -76.96 40.9922 -121.408 40.9922
c-53.6963 0 -104.224 -20.9287 -142.24 -58.9121c-37.9834 -37.9844 -58.9121 -88.5127 -58.9121 -142.24zM398.208 49.7598c38.0156 37.9844 58.9443 88.5127 58.9121 142.208c0 44.4482 -14.5283 86.5918 -40.9922 121.376l-281.504 -281.536
c34.7842 -26.4316 76.8955 -40.96 121.376 -40.96c53.6963 0 104.224 20.9287 142.208 58.9121z" />
    <glyph glyph-name="uniF137" unicode="&#xf137;" 
d="M512 154.368c0 -40.96 -24.4053 -71.9502 -61.3828 -85.0918l-0.483398 0.114258l-3.79785 -5.40527l-318.691 -0.0703125c-1.80664 -0.242188 -3.79785 0.0703125 -5.9873 0.0703125c-68.2246 0 -121.657 52.082 -121.657 125.412
c0 62.6631 42.5811 121.43 99.4277 133.433c2.74512 69.5186 57.0732 125.185 123.463 125.185c59.5771 0 110.18 -45.8809 121.244 -105.999c3.71191 0.625977 7.43848 0.939453 11.1787 0.939453c40.7607 0 73.9131 -35.0723 73.9131 -78.1943
c0 -3.22852 -0.18457 -6.44238 -0.583008 -9.64258c46.5781 -3.83984 83.3564 -50.5029 83.3564 -100.75zM409.799 220.316l-17.3936 24.334c3.2002 6.58496 4.82129 13.3545 4.82129 20.1104c0 24.4482 -18.8018 44.3447 -41.9131 44.3447
c-6.03027 0 -12.1172 -1.52148 -18.0615 -4.52246l-22.8838 14.8906c-1.10938 52.21 -42.1406 94.6914 -91.4775 94.6914c-50.5029 0 -91.5771 -43.4629 -91.5771 -96.8955c0 -2.61719 0.199219 -5.21973 0.384766 -7.83691l-14.792 -18.1904
c-47.6152 -3.6543 -84.9062 -51.3701 -84.9062 -101.845c0 -54.3291 39.3809 -96.8965 89.6572 -96.8965h91.6758v148.238l-68.6934 -71.665c-6.24316 -6.52832 -16.3691 -6.52832 -22.6133 0c-6.25781 6.51367 -6.25781 17.0801 0 23.6084l95.9863 100.167
c6.25781 6.52832 12.8281 6.52832 19.0713 0l96 -100.167c3.12891 -3.27148 4.69336 -7.53809 4.69336 -11.8184c0 -4.2666 -1.56445 -8.5332 -4.69336 -11.79c-6.24316 -6.52832 -16.3691 -6.52832 -22.6133 0l-68.6934 71.665v-148.238h190.223
c23.9355 8.50488 48 35.4707 48 61.8672c0 38.2012 -33.6777 73.6426 -70.2012 65.9482z" />
    <glyph glyph-name="uniF13B" unicode="&#xf13b;" 
d="M515.587 185.862c0 -141.28 -114.663 -255.943 -255.943 -255.943s-255.943 114.663 -255.943 255.943s114.663 255.943 255.943 255.943h0.0810547c141.236 0 255.862 -114.626 255.862 -255.862v-0.0810547zM391.821 -11.6211l-139.742 191.989l0.245117 0.245117
c-0.988281 1.28223 -1.88672 3.63379 -2.00586 5.24902v237.244c-126.088 -4.86719 -228.421 -111.228 -228.421 -237.41c0 -131.147 106.438 -237.586 237.587 -237.586c39.9062 0 99.1934 18.04 132.337 40.2686zM268.838 198.855l210.998 76
c-31.7461 78.6172 -126.273 145.034 -210.998 148.251v-224.251zM497.328 185.813v0.0302734c0 20.2744 -5.03223 52.3955 -11.2324 71.6992l-211.927 -76.2451l132.405 -181.948c50.0967 39.2383 90.7539 122.729 90.7539 186.362v0.150391v-0.0488281z" />
    <glyph glyph-name="uniF139" unicode="&#xf139;" 
d="M426.272 91.4883l18.6875 -16.0645c31.1357 -26.4961 50.1123 -53.4082 19.5518 -79.8398l-16.6074 -14.4004c-11.6162 -11.9355 -48.7363 -44.7676 -110.272 -45.376c-73.9834 -0.832031 -152.096 45.0889 -231.872 136.513
c-79.8721 91.3281 -114.752 174.592 -103.712 247.328c9.21582 60.5752 47.0723 92.4795 60.6084 102.304l16.5762 14.3682c30.624 26.4639 54.752 3.96777 76.8955 -30.2725l13.3125 -20.7998c22.0479 -34.3037 33.5674 -67.6484 3.00781 -94.1123l-18.4639 -16
c-13.4404 -11.4873 -70.8486 -28.6396 25.6641 -138.912c96.4795 -110.399 121.439 -56.2559 134.88 -44.6719l18.3359 15.9678c30.7197 26.4326 62.2715 10.4004 93.4082 -16.0312z" />
    <glyph glyph-name="uniF102" unicode="&#xf102;" 
d="M334.571 173.714c0 -2.47591 -0.952474 -4.66634 -2.85742 -6.57129l-133.143 -133.143c-1.90495 -1.90495 -4.09538 -2.85742 -6.57129 -2.85742s-4.66634 0.952474 -6.57129 2.85742l-14.2861 14.2861c-1.9043 1.9043 -2.85645 4.09473 -2.85645 6.57129
c0 2.47591 0.952148 4.66634 2.85645 6.57129l112.286 112.285l-112.286 112.286c-1.9043 1.90495 -2.85645 4.09538 -2.85645 6.57129c0 2.47656 0.952148 4.66699 2.85645 6.57129l14.2861 14.2861c1.90495 1.90495 4.09538 2.85742 6.57129 2.85742
s4.66634 -0.952474 6.57129 -2.85742l133.143 -133.143c1.90495 -1.90495 2.85742 -4.0957 2.85742 -6.57227z" />
    <glyph glyph-name="uniF119" unicode="&#xf119;" 
d="M216.234 210.176v198.443c0 21.9307 17.9199 39.7227 39.9785 39.7227c21.9736 0 39.8936 -17.792 39.8936 -39.7227v-198.443c0 -21.9307 -17.9199 -39.6367 -39.8936 -39.6367c-22.0586 0 -39.9785 17.7061 -39.9785 39.6367v0zM414.55 390.187v0
c62.0371 -48.6826 97.5781 -121.472 97.5781 -199.894c0 -140.202 -114.773 -254.208 -255.915 -254.208c-141.227 0 -256 114.006 -256 254.208c0 78.3359 35.542 151.211 97.4941 199.766c13.0557 10.1973 31.9141 7.93652 42.1973 -4.90625
c10.1973 -12.9707 7.93555 -31.6162 -4.99219 -41.8135c-47.5732 -37.248 -74.709 -93.0137 -74.709 -153.046c0 -107.349 87.8506 -194.73 196.01 -194.73c108.075 0 196.011 87.3818 196.011 194.73c0 60.1182 -27.2207 115.798 -74.7939 153.046
c-12.9287 10.1973 -15.2324 28.9707 -4.94922 41.8984c10.2393 12.8857 29.0986 15.0186 42.0693 4.94922z" />
    <glyph glyph-name="uniF11E" unicode="&#xf11e;" 
d="M491.52 192c0 -129.024 -104.447 -235.52 -235.52 -235.52s-235.52 106.495 -235.52 235.52c0 131.072 104.447 235.52 235.52 235.52s235.52 -104.447 235.52 -235.52zM411.648 38.4004c38.9111 38.9111 63.4873 94.208 63.4873 153.6
c0 120.832 -98.3037 219.136 -219.136 219.136s-219.136 -98.3037 -219.136 -219.136c0 -59.3916 22.5273 -112.64 61.4395 -151.552c20.4805 14.3359 43.0078 26.624 88.0645 45.0557c10.2402 10.2402 12.2881 22.5283 12.2881 34.8164
c0 51.1992 -36.8643 57.3438 -36.8643 96.2559c0 4.0957 0 8.19141 2.04785 14.3359c-2.04785 6.14355 -6.14355 24.5762 -6.14355 47.1035c2.04785 47.1045 26.624 86.0166 92.1602 86.0166c10.2393 2.04785 18.4316 4.0957 26.624 4.0957
c53.2471 0 71.6797 -49.1523 71.6797 -92.1602c0 -16.3838 -2.04785 -28.6719 -4.0957 -36.8643c2.04785 -8.19141 4.0957 -26.623 -10.2402 -55.2959c-12.2881 -24.5752 -28.6719 -49.1514 -28.6719 -67.584c0 -10.2393 4.0957 -20.4795 16.3838 -30.7197
c10.2402 -2.04785 53.248 -16.3838 90.1123 -47.1035z" />
    <glyph glyph-name="uniF124" unicode="&#xf124;" 
d="M256 320c17.6924 0 32 -14.3076 32 -32s-14.3359 -32 -32 -32s-32 14.3359 -32 32s14.3359 32 32 32zM256 224c17.6924 0 32 -14.3359 32 -32v-96c0 -17.6641 -14.3359 -32 -32 -32s-32 14.3359 -32 32v96c0 17.6924 14.3359 32 32 32zM256 448
c141.142 0 256 -114.858 256 -256s-114.858 -256 -256 -256s-256 114.858 -256 256s114.858 256 256 256zM256 -15.9854c114.688 0 207.985 93.2969 207.985 207.985s-93.2969 208.015 -207.985 208.015c-114.717 0 -208.015 -93.3262 -208.015 -208.015
s93.2979 -207.985 208.015 -207.985z" />
    <glyph glyph-name="uniF11C" unicode="&#xf11c;" 
d="M338.99 113.78l143.988 -146.851c6.77246 -7.21484 6.77246 -18.6182 0 -25.5303c-3.25781 -3.60742 -7.98242 -5.39941 -12.4043 -5.39941s-8.84375 1.79199 -12.3809 5.39941l-145.454 148.061c-32.7451 -24.9248 -73.1699 -39.6562 -117.132 -39.6562
c-107.985 0 -195.607 89.4834 -195.607 199.098c0 109.615 87.6221 199.099 195.607 199.099s195.607 -89.4834 195.607 -199.099c0 -52.2471 -20.0615 -99.7002 -52.2246 -135.121zM35.3975 248.901c0 -89.7861 71.7041 -163.048 160.21 -163.048
s160.209 72.96 160.209 163.048c0 90.0889 -71.9824 163.072 -160.209 163.072c-88.5059 0 -160.21 -73.2852 -160.21 -163.072z" />
    <glyph glyph-name="uniF130" unicode="&#xf130;" 
d="M256 448c141.376 0 256 -114.624 256 -256s-114.624 -256 -256 -256s-256 114.624 -256 256c0 59.168 20.2236 113.44 53.9199 156.832l-43.2959 43.2959c-12.5117 12.5117 -13.376 33.6318 -0.896484 46.1445c12.5127 12.5117 33.6328 11.6152 46.1445 -0.896484
l43.2959 -43.2959c43.3916 33.6641 97.6641 53.9199 156.832 53.9199zM256 0c106.016 0 192 85.9844 192 192c0 106.048 -85.9844 192 -192 192c-41.4717 0 -79.7764 -13.2803 -111.136 -35.6162l46.4639 -46.4961c19.04 11.2324 40.96 18.1123 64.6719 18.1123
c70.6885 0 128 -57.3115 128 -128s-57.3115 -128 -128 -128s-128 57.3115 -128 128c0 23.6797 6.84766 45.6318 18.0801 64.6396l-46.4639 46.4961c-22.3359 -31.3916 -35.6162 -69.6953 -35.6162 -111.136c0 -106.016 85.9521 -192 192 -192zM233.376 169.376
l-39.0078 39.0078c-1.4082 -5.24805 -2.36816 -10.6875 -2.36816 -16.3838c0 -35.3281 28.6396 -64 64 -64c35.3281 0 64 28.6719 64 64c0 35.3604 -28.6719 64 -64 64c-5.69629 0 -11.1357 -0.992188 -16.3838 -2.36816l39.0078 -39.0078
c12.4795 -12.5117 12.5117 -32.7363 0 -45.248c-12.5117 -12.4795 -32.7676 -12.4795 -45.248 0z" />
    <glyph glyph-name="uniF118" unicode="&#xf118;" 
d="M0 -64v102.4h512v-102.4h-512zM0 243.2h512v-102.4h-512v102.4zM0 448h512v-102.4h-512v102.4z" />
    <glyph glyph-name="uniF10D" unicode="&#xf10d;" 
d="M28.6719 -41.4717c-4.0957 0 -8.19141 4.0957 -8.19141 8.19141v2.04785l34.8154 151.553v0c0 2.04785 2.04785 2.04785 2.04785 4.0957v0l303.104 303.104c2.04785 2.04883 4.0957 2.04883 6.14355 2.04883s4.09668 0 6.14453 -2.04883l118.783 -118.783v-6.14453
s0 -4.0957 -2.04785 -6.14355l-303.104 -301.057c-2.04785 -2.04785 -2.04785 -2.04785 -4.0957 -2.04785v0l-153.601 -34.8154v0c2.04785 0 2.04785 0 0 0zM172.032 58.8799h-43.0078c-4.09668 0 -8.19238 4.0957 -8.19238 8.19238v40.96h-51.2002l-28.6719 -131.072
l131.072 28.6719v53.248zM407.552 239.104l-104.448 106.496l-219.136 -219.136h47.1045c4.0957 0 8.19141 -4.0957 8.19141 -8.19141v-43.0088h43.0088c4.0957 0 8.19141 -4.0957 8.19141 -8.19141v-47.1045zM471.04 302.592l-106.496 106.496l-51.2002 -51.2002
l106.496 -106.496z" />
    <glyph glyph-name="uniF11D" unicode="&#xf11d;" 
d="M443.1 260.9c37.9971 0 68.9004 -30.9023 68.9004 -68.9004s-30.9033 -68.9004 -68.9004 -68.9004h-6.25391c-1.28027 -3.40137 -2.70605 -6.83887 -4.24219 -10.2764l4.4248 -4.42578c12.9463 -12.9824 20.1143 -30.2812 20.1143 -48.7129
c0 -18.3955 -7.16797 -35.6934 -20.1143 -48.6768c-12.9824 -13.0195 -30.2812 -20.1504 -48.7129 -20.1504c-18.4688 0 -35.7666 7.16797 -48.7129 20.1504l-4.42578 4.38867c-3.32715 -1.49902 -6.76562 -2.92578 -10.3125 -4.24219v-6.25391
c0 -37.9971 -30.9033 -68.9004 -68.8643 -68.9004c-37.998 0 -68.9004 30.9033 -68.9004 68.9004v6.25391c-3.47461 1.31641 -6.94922 2.74316 -10.3135 4.24219l-4.38867 -4.4248c-12.9463 -12.9463 -30.2812 -20.1143 -48.7129 -20.1143
s-35.7305 7.13086 -48.7129 20.1143c-12.9834 12.9824 -20.1143 30.2812 -20.1143 48.7129c0 18.4688 7.13086 35.7666 20.1143 48.7129l4.4248 4.38867c-1.53613 3.4375 -2.96191 6.87598 -4.27832 10.3135h-6.25391c-37.9609 0 -68.8643 30.9023 -68.8643 68.9004
s30.9033 68.9004 68.8643 68.9004h6.25391c1.31641 3.4375 2.74219 6.87598 4.27832 10.3135l-4.4248 4.38867c-12.9834 12.9463 -20.1143 30.2441 -20.1143 48.7129c0 18.4316 7.13086 35.7305 20.1143 48.7129c12.9824 12.9834 30.2812 20.1143 48.7129 20.1143
s35.7666 -7.16797 48.7129 -20.1143l4.38867 -4.4248c3.36426 1.49902 6.83887 2.92578 10.3135 4.24219v6.25391c0 37.9971 30.9023 68.9004 68.9004 68.9004c37.9609 0 68.8643 -30.9033 68.8643 -68.9004v-6.25391c3.54688 -1.31641 6.98535 -2.74316 10.3125 -4.24219
l4.42578 4.38867c12.9463 12.9824 30.2441 20.1504 48.7129 20.1504c18.4316 0 35.7305 -7.13086 48.7129 -20.1143c12.9463 -13.0195 20.1143 -30.3174 20.1143 -48.7129c0 -18.4316 -7.16797 -35.7305 -20.1143 -48.7129l-4.4248 -4.42578
c1.53613 -3.40039 2.96191 -6.83887 4.24219 -10.2764h6.25391zM405.76 306.907c4.6084 4.57129 7.16797 10.752 7.16797 17.4082c0 6.61914 -2.55957 12.7998 -7.16797 17.4443c-4.38867 4.38867 -10.752 6.87598 -17.4443 6.87598h-0.0361328
c-6.69336 0 -13.0566 -2.52344 -17.4082 -6.87598l-27.502 -27.502l-14.5918 8.15625c-9.98438 5.59473 -20.7363 10.0205 -32.0371 13.2021l-16.0908 4.57129v38.9121c0 13.6045 -11.0449 24.6855 -24.6494 24.6855s-24.6855 -11.0811 -24.6855 -24.6855v-38.9121
l-16.0918 -4.57129c-11.3008 -3.18164 -22.0527 -7.60742 -32 -13.2021l-14.5918 -8.15625l-27.5381 27.502c-8.74121 8.77734 -26.1123 8.74121 -34.8525 0c-4.64453 -4.64453 -7.16797 -10.8252 -7.16797 -17.4443c0 -6.65625 2.52344 -12.8369 7.16797 -17.4082
l27.4648 -27.5381l-8.15527 -14.5918c-5.48535 -9.83789 -9.94727 -20.627 -13.2021 -32.0371l-4.53516 -16.0547h-38.9482c-13.6045 0 -24.6494 -11.0811 -24.6494 -24.6855s11.0449 -24.6855 24.6494 -24.6855h38.9482l4.53516 -16.0547
c3.25488 -11.4102 7.7168 -22.1992 13.2021 -32.0371l8.15527 -14.5918l-27.4648 -27.502c-4.64453 -4.60742 -7.16797 -10.7881 -7.16797 -17.4443c0 -6.61914 2.52344 -12.7998 7.16797 -17.4443c9.14258 -9.10645 25.7461 -9.07031 34.8887 0l27.502 27.502
l14.5918 -8.19238c9.94727 -5.52246 20.6992 -9.98438 32 -13.166l16.0918 -4.57129v-38.9121c0 -13.6045 11.0811 -24.6855 24.6855 -24.6855s24.6494 11.0811 24.6494 24.6855v38.9121l16.0908 4.57129c11.3008 3.18164 22.0527 7.64355 32.0371 13.2021l14.5918 8.15625
l27.502 -27.502c9.10645 -9.14355 25.7461 -9.10645 34.8887 0c4.6084 4.64453 7.16797 10.8252 7.16797 17.4443c0 6.65625 -2.55957 12.8369 -7.16797 17.4082l-27.502 27.5381l8.15625 14.5918c5.59473 10.0205 10.0205 20.7725 13.2021 32.0371l4.57129 16.0547h38.9121
c13.6045 0 24.6855 11.0811 24.6855 24.6855s-11.0811 24.6855 -24.6855 24.6855h-38.9121l-4.57129 16.0547c-3.14551 11.2275 -7.60742 21.9795 -13.2021 32.0371l-8.15625 14.5918zM256 91.9404c-55.1865 0 -100.096 44.873 -100.096 100.06
s44.9092 100.06 100.096 100.06c55.1494 0 100.06 -44.873 100.06 -100.06s-44.9102 -100.06 -100.06 -100.06zM256 247.845c-30.8301 0 -55.8809 -25.0518 -55.8809 -55.8447s25.0508 -55.8447 55.8809 -55.8447c30.793 0 55.8447 25.0518 55.8447 55.8447
s-25.0518 55.8447 -55.8447 55.8447z" />
    <glyph glyph-name="uniF106" unicode="&#xf106;" 
d="M463.988 -64h-143.988c-26.4844 0 -40.9131 21.5273 -40.9131 48.0117v143.988c0 26.4609 14.4287 40.9131 40.9131 40.9131h143.988c26.4844 0 48.0117 -14.4521 48.0117 -40.9131v-143.988c0 -26.4844 -21.5273 -48.0117 -48.0117 -48.0117zM480 122.182
c0 8.82031 -7.16797 15.2666 -16.0117 15.2666h-143.988c-8.84375 0 -10.1934 -6.44629 -10.1934 -15.2666v-138.17c0 -8.82031 1.34961 -16.0117 10.1934 -16.0117h143.988c8.84375 0 16.0117 7.19141 16.0117 16.0117v138.17zM463.988 215.133h-143.988
c-26.4844 0 -40.9131 14.4062 -40.9131 40.8672v144.012c0 26.4609 14.4287 47.9883 40.9131 47.9883h143.988c26.4844 0 48.0117 -21.5273 48.0117 -47.9883v-144.012c0 -26.4609 -21.5273 -40.8672 -48.0117 -40.8672zM480 400.012
c0 8.82031 -7.16797 15.9883 -16.0117 15.9883h-143.988c-8.84375 0 -10.1934 -7.16797 -10.1934 -15.9883v-144.012c0 -8.82031 1.34961 -8.00586 10.1934 -8.00586h143.988c8.84375 0 16.0117 -0.814453 16.0117 8.00586v144.012zM192 -64h-144.012
c-26.4609 0 -47.9883 21.5273 -47.9883 48.0117v143.988c0 26.4609 21.5273 40.9131 47.9883 40.9131h144.012c26.4609 0 40.8906 -14.4521 40.8906 -40.9131v-143.988c0 -26.4844 -14.4297 -48.0117 -40.8906 -48.0117zM200.728 124.369
c0 8.82031 0.0927734 13.8242 -8.72754 13.8242h-144.012c-8.82031 0 -15.9883 -5.00391 -15.9883 -13.8242v-140.357c0 -8.82031 7.16797 -16.0117 15.9883 -16.0117h144.012c8.82031 0 8.72754 7.19141 8.72754 16.0117v140.357zM192 215.133h-144.012
c-26.4609 0 -47.9883 14.4062 -47.9883 40.8672v144.012c0 26.4609 21.5273 47.9883 47.9883 47.9883h144.012c26.4609 0 40.8906 -21.5273 40.8906 -47.9883v-144.012c0 -26.4609 -14.4297 -40.8672 -40.8906 -40.8672zM200.728 400.012
c0 8.82031 0.0927734 15.9883 -8.72754 15.9883h-144.012c-8.82031 0 -15.9883 -7.16797 -15.9883 -15.9883v-144.012c0 -8.82031 7.16797 -8.00586 15.9883 -8.00586h144.012c8.82031 0 8.72754 -0.814453 8.72754 8.00586v144.012z" />
    <glyph glyph-name="uniF123" unicode="&#xf123;" 
d="M179.003 71.3018l-170.667 164.896c-11.0938 10.7412 -11.0938 28.1191 0 38.8594l170.667 164.896c5.54688 5.35449 12.8252 8.04785 20.1025 8.04785c7.27832 0 14.5566 -2.69336 20.1035 -8.04785c11.125 -10.7402 11.125 -28.1504 0 -38.8594l-122.093 -117.988
h386.444c15.7109 0 28.4395 -12.3115 28.4395 -27.4775c0 -15.1973 -12.7285 -27.5088 -28.4395 -27.5088h-386.444l122.093 -117.957c11.125 -10.7402 11.125 -28.1182 0 -38.8594c-11.0938 -10.7402 -29.0811 -10.7402 -40.2061 0z" />
    <glyph glyph-name="uniF138" unicode="&#xf138;" 
d="M448 -64h-384c-35.2959 0 -64 28.7041 -64 64v384c0 35.2959 28.7041 64 64 64h384c35.2803 0 64 -28.7041 64 -64v-384c0 -35.2959 -28.7197 -64 -64 -64zM480 384c0 17.6484 -14.3516 32 -32 32h-384c-17.6484 0 -32 -14.3516 -32 -32v-384
c0 -17.6318 14.3516 -32 32 -32h384c17.6484 0 32 14.3682 32 32v384zM368 32c-8.83203 0 -16 7.15234 -16 16v256c0 8.84766 7.16797 16 16 16s16 -7.15234 16 -16v-256c0 -8.84766 -7.16797 -16 -16 -16zM256 32c-8.83203 0 -16 7.15234 -16 16v176
c0 8.84766 7.16797 16 16 16s16 -7.15234 16 -16v-176c0 -8.84766 -7.16797 -16 -16 -16zM144 31.5039c-8.83203 0 -16 7.15234 -16 16v64.4961c0 8.84766 7.16797 16 16 16s16 -7.15234 16 -16v-64.4961c0 -8.84766 -7.16797 -16 -16 -16z" />
    <glyph glyph-name="uniF107" unicode="&#xf107;" 
d="M463.988 -64h-143.988c-26.4844 0 -40.9131 21.5273 -40.9131 48.0117v143.988c0 26.4609 14.4287 40.9131 40.9131 40.9131h143.988c26.4844 0 48.0117 -14.4521 48.0117 -40.9131v-143.988c0 -26.4844 -21.5273 -48.0117 -48.0117 -48.0117zM463.988 215.133h-143.988
c-26.4844 0 -40.9131 14.4062 -40.9131 40.8672v144.012c0 26.4609 14.4287 47.9883 40.9131 47.9883h143.988c26.4844 0 48.0117 -21.5273 48.0117 -47.9883v-144.012c0 -26.4609 -21.5273 -40.8672 -48.0117 -40.8672zM192 -64h-144.012
c-26.4609 0 -47.9883 21.5273 -47.9883 48.0117v143.988c0 26.4609 21.5273 40.9131 47.9883 40.9131h144.012c26.4609 0 40.8906 -14.4521 40.8906 -40.9131v-143.988c0 -26.4844 -14.4297 -48.0117 -40.8906 -48.0117zM192 215.133h-144.012
c-26.4609 0 -47.9883 14.4062 -47.9883 40.8672v144.012c0 26.4609 21.5273 47.9883 47.9883 47.9883h144.012c26.4609 0 40.8906 -21.5273 40.8906 -47.9883v-144.012c0 -26.4609 -14.4297 -40.8672 -40.8906 -40.8672z" />
    <glyph glyph-name="uniF134" unicode="&#xf134;" 
d="M504 444.857c6.28581 -4.57161 8.8571 -10.667 7.71387 -18.2861l-73.1426 -438.857c-0.952474 -5.52344 -4 -9.80892 -9.14258 -12.8564c-2.66667 -1.52409 -5.61914 -2.28613 -8.85742 -2.28613c-2.09505 0 -4.38086 0.476237 -6.85742 1.42871l-129.428 52.8574
l-69.1436 -84.2861c-3.42839 -4.38086 -8.09505 -6.57129 -14 -6.57129c-2.47591 0 -4.57096 0.380859 -6.28516 1.14258c-3.61914 1.33333 -6.52409 3.57161 -8.71484 6.71484c-2.1901 3.14258 -3.28516 6.61882 -3.28516 10.4287v99.7139l246.856 302.571
l-305.428 -264.285l-112.857 46.2852c-7.04753 2.66667 -10.8571 7.90495 -11.4287 15.7148c-0.380859 7.61849 2.66667 13.2373 9.14258 16.8564l475.429 274.286c2.85742 1.71419 5.90495 2.57129 9.14258 2.57129c3.8099 0 7.23861 -1.04753 10.2861 -3.14258z" />
    <glyph glyph-name="uniF12B" unicode="&#xf12b;" 
d="M121.819 220.16h268.361l-134.181 134.181zM377.819 225.28h-243.639l121.819 121.819zM384 222.72h-256l128 128z" />
    <glyph glyph-name="uniF109" unicode="&#xf109;" 
d="M505.712 191.008c0 -137.037 -111.219 -248.256 -248.256 -248.256s-248.256 111.219 -248.256 248.256s111.219 248.256 248.256 248.256c137.028 -0.00878906 248.247 -111.228 248.256 -248.256zM488.016 191.008
c0.000976562 0.131836 0.000976562 0.34668 0.000976562 0.478516c0 127.27 -103.291 230.561 -230.561 230.561c-127.269 0 -230.56 -103.291 -230.56 -230.561c0 -57.1338 34.6494 -134.318 77.3438 -172.286c34.5674 36.1357 103.208 65.4629 153.216 65.4629
c50.0068 0 118.648 -29.3271 153.216 -65.4629c42.6416 37.833 77.2842 114.803 77.3281 171.808h0.015625zM106.672 182.288h-35.4082h-0.0810547c-4.81445 0 -8.7998 3.90625 -8.89453 8.71973c0.0595703 4.89551 4.08105 8.92383 8.97559 8.99219h35.4082
c4.88672 -0.0683594 8.9082 -4.08984 8.97656 -8.97559c-0.0869141 -4.82324 -4.07129 -8.73633 -8.89453 -8.73633h-0.0820312zM134.544 120.224c0.649414 -1.13672 1.17676 -3.12109 1.17676 -4.43066c0 -2.80859 -1.96094 -6.24902 -4.37695 -7.68066l-30.7354 -17.9365
c-1.25586 -0.861328 -3.51074 -1.56055 -5.0332 -1.56055c-4.91113 0 -8.89648 3.98535 -8.89648 8.89648c0 3.15234 2.32617 6.77637 5.19336 8.08789l30.5439 17.6963c1.15039 0.668945 3.16406 1.21094 4.49414 1.21094c2.77051 0 6.19043 -1.91895 7.63379 -4.2832z
M134.544 262.048c-1.38281 -2.52148 -4.83984 -4.56836 -7.71582 -4.56836c-1.30078 0 -3.26953 0.527344 -4.39648 1.17676l-30.5596 17.6797c-2.50684 1.4082 -4.54102 4.88477 -4.54102 7.75977c0 4.91406 3.9873 8.90137 8.90137 8.90137
c1.28516 0 3.23828 -0.511719 4.35938 -1.14062l30.7842 -17.6963c2.3916 -1.45215 4.33203 -4.90137 4.33203 -7.69922c0 -1.30664 -0.521484 -3.29102 -1.16406 -4.42871v0.015625zM396.8 7.72754c-31.5459 32.6543 -93.9971 59.1572 -139.399 59.1572
c-45.4033 0 -107.854 -26.5029 -139.4 -59.1572c34.0518 -26.0898 96.5029 -47.2646 139.4 -47.2646s105.349 21.1748 139.399 47.2646zM189.808 326.032c0.650391 -1.12695 1.17676 -3.0957 1.17676 -4.39648c0 -2.87598 -2.04688 -6.33301 -4.56836 -7.71582
c-1.13086 -0.625977 -3.09863 -1.13379 -4.3916 -1.13379c-2.80566 0 -6.27148 1.94141 -7.73633 4.33398l-17.6797 30.7363c-0.644531 1.12695 -1.16699 3.09668 -1.16699 4.39551c0 2.87891 2.04199 6.34961 4.55859 7.74805
c1.13477 0.637695 3.1123 1.15527 4.41406 1.15527c2.80762 0 6.26367 -1.95117 7.71387 -4.35547zM352.496 286.032c1.49805 -1.37598 2.71387 -4.14258 2.71387 -6.17578c0 -2.03418 -1.21582 -4.80078 -2.71387 -6.17676l-64.4961 -64.7354
c2.59863 -4.60938 4.74902 -12.6455 4.7998 -17.9365c-0.0429688 -19.4482 -15.8633 -35.2324 -35.3115 -35.2324c-19.4922 0 -35.3125 15.8193 -35.3125 35.3115s15.8203 35.3125 35.3125 35.3125c5.29102 0 13.291 -2.17188 17.8555 -4.84766l64.7207 64.4805
c1.37598 1.52637 4.16016 2.76562 6.21582 2.76562c2.05469 0 4.83984 -1.23926 6.21582 -2.76562zM275.2 191.008c0 9.76855 -7.92773 17.6963 -17.6963 17.6963s-17.6963 -7.92773 -17.6963 -17.6963c0 -9.76758 7.92773 -17.6963 17.6963 -17.6963
c9.70703 0.0615234 17.6348 7.98926 17.6963 17.6963zM248.48 341.792v35.4082c0 4.9541 4.02051 8.97559 8.97559 8.97559s8.97559 -4.02148 8.97559 -8.97559v-35.4082c0 -4.95508 -4.02051 -8.97559 -8.97559 -8.97559s-8.97559 4.02051 -8.97559 8.97559z
M358.304 347.856l-17.6953 -30.7842c-1.46289 -2.3916 -4.92383 -4.33301 -7.72656 -4.33301c-1.29199 0 -3.25586 0.507812 -4.38574 1.13281c-2.52832 1.38184 -4.58105 4.84082 -4.58105 7.72266c0 1.29785 0.525391 3.26465 1.17285 4.38965l17.7119 30.8154
c1.4502 2.4043 4.90625 4.35547 7.71387 4.35547c1.30176 0 3.2793 -0.517578 4.41406 -1.15527c2.5166 -1.39844 4.55859 -4.86914 4.55859 -7.74805c0 -1.29883 -0.522461 -3.26855 -1.16602 -4.39551h-0.0166016zM426.432 93.5518
c-1.39453 -2.51562 -4.86133 -4.55762 -7.73828 -4.55762c-1.29688 0 -3.26367 0.522461 -4.38965 1.16602l-30.7842 17.9355c-2.40918 1.41699 -4.36523 4.83691 -4.36523 7.63184c0 4.8877 3.9668 8.85449 8.85352 8.85449c1.33105 0 3.34082 -0.547852 4.48828 -1.22168
l30.5439 -17.7607c2.49316 -1.39941 4.5166 -4.85547 4.5166 -7.71484c0 -1.27246 -0.503906 -3.20605 -1.125 -4.31641v-0.0166016zM380.368 262.032c-0.637695 1.13477 -1.15625 3.1123 -1.15625 4.41406c0 2.80762 1.95215 6.26367 4.35645 7.71387l30.7832 17.6963
c1.12305 0.631836 3.08008 1.14453 4.36816 1.14453c4.91602 0 8.90527 -3.98926 8.90527 -8.90527c0 -2.87402 -2.03223 -6.34961 -4.53711 -7.75977l-30.5439 -17.6963c-1.13672 -0.665039 -3.12793 -1.2041 -4.44434 -1.2041
c-2.88867 0 -6.35254 2.05859 -7.73145 4.59668zM452.624 191.008c-0.0947266 -4.81348 -4.08008 -8.71973 -8.89453 -8.71973h-0.0810547h-35.3926h-0.0820312c-4.81445 0 -8.79883 3.90625 -8.89355 8.71973c0.0683594 4.88672 4.08887 8.9082 8.97559 8.97656h35.4082
c4.87793 -0.0771484 8.8916 -4.09863 8.95996 -8.97656z" />
    <glyph glyph-name="uniF103" unicode="&#xf103;" 
d="M323.58 -29.1797c85.4814 0 153.448 67.8438 155.66 151.404v137.355c0 85.6338 -70.1885 153.6 -153.601 153.6h-137.22c-85.5088 0 -153.6 -68.1016 -153.6 -153.6v-135.16c0 -83.4092 67.9717 -153.6 153.6 -153.6h135.16zM323.58 -8.7002h-135.16
c-74.1318 0 -133.12 60.8896 -133.12 133.12v135.16c0 74.2617 58.8691 133.12 133.12 133.12h137.22c72.2285 0 133.12 -58.9932 133.12 -133.12v-137.085c-1.9082 -72.0791 -60.9014 -131.195 -135.18 -131.195zM362.496 249.344
c0 -4.0957 -2.04785 -6.14355 -4.0957 -10.2402l-98.3047 -98.3037l-20.4795 -20.4795c-2.04785 -2.04785 -6.14453 -4.09668 -10.2402 -4.09668s-6.14355 2.04883 -10.2402 4.09668l-16.3838 20.4795l-49.1523 49.1523c-2.04785 2.04785 -4.0957 6.14355 -4.0957 10.2402
c0 4.0957 2.04785 6.14355 4.0957 10.2393l4.09668 6.14453c2.04785 2.04785 6.14355 4.0957 10.2393 4.0957c4.09668 0 6.14453 -2.04785 10.2402 -4.0957l55.2959 -55.2959l102.4 104.447c2.04785 2.04883 6.14355 4.09668 10.2402 4.09668
c4.0957 0 6.14355 -2.04785 10.2393 -4.09668l6.14453 -4.0957c-2.04785 -6.14355 0 -10.2402 0 -12.2881z" />
    <glyph glyph-name="uniF128" unicode="&#xf128;" 
d="M261.381 -62.8643c-77.2354 0 -149.076 35.4941 -196.951 97.3398c-10.0518 13.0342 -7.80859 31.8604 4.85547 42.1104c12.7783 10.2227 31.1494 7.95117 41.2021 -4.99707c36.7432 -47.4492 91.7178 -74.5381 150.894 -74.5381
c105.802 0 191.926 87.6855 191.926 195.645c0 107.903 -86.124 195.702 -191.926 195.702c-59.29 0 -114.15 -27.1738 -150.894 -74.6514c-10.0527 -12.9482 -28.5098 -15.2207 -41.2871 -4.99805c-12.6934 10.251 -14.8223 29.0771 -4.85547 41.9971
c47.96 61.959 119.687 97.4541 197.036 97.4541c138.173 0 250.562 -114.604 250.562 -255.504c0 -140.955 -112.39 -255.56 -250.562 -255.56zM261.807 220.836l-47.3916 44.6943l0.0566406 0.0566406c-4.74219 4.42969 -7.72363 10.7617 -7.72363 17.8896
c0 13.4307 10.5918 24.335 23.6533 24.335c6.19043 0 11.7275 -2.49902 15.958 -6.47461l0.0576172 0.0566406l94.6416 -89.2188c4.88477 -4.62793 7.66699 -11.1309 7.66699 -17.9453c0 -6.84375 -2.78223 -13.3184 -7.66699 -17.9463l-94.6416 -89.2471
l-0.0576172 0.0566406c-4.23047 -3.97559 -9.76758 -6.44629 -15.958 -6.44629c-13.0615 0 -23.6533 10.9043 -23.6533 24.335c0 7.09961 2.98145 13.4316 7.72363 17.8613l-0.0566406 0.0566406l43.8711 41.4004c-2.89648 0.0283203 -5.90625 0.0859375 -9.00195 0.0859375
h-204.76c-24.3916 0 -44.1836 2.98145 -44.1836 27.458c0 24.3633 19.792 29.1621 44.1836 29.1621h204.76c4.40137 0 8.54688 -0.0283203 12.5225 -0.169922z" />
    <glyph glyph-name="uniF131" unicode="&#xf131;" 
d="M62.8867 346.08c0 -10.8516 -8.80664 -19.6592 -19.6582 -19.6592c-10.8525 0 -19.6592 8.80762 -19.6592 19.6592s8.80664 19.6582 19.6592 19.6582c10.8516 0 19.6582 -8.80664 19.6582 -19.6582zM62.8867 247.502c0 -10.8525 -8.80664 -19.6592 -19.6582 -19.6592
c-10.8525 0 -19.6592 8.80664 -19.6592 19.6592c0 10.8516 8.80664 19.6582 19.6592 19.6582h0.106445c10.793 0 19.5518 -8.75879 19.5518 -19.5518v-0.106445zM62.8867 158.895c0 -10.8516 -8.80664 -19.6592 -19.6582 -19.6592
c-10.8525 0 -19.6592 8.80762 -19.6592 19.6592s8.80664 19.6592 19.6592 19.6592h0.106445c10.793 0 19.5518 -8.75977 19.5518 -19.5518v-0.107422zM62.8867 70.2881c0 -10.8516 -8.80664 -19.6592 -19.6582 -19.6592c-10.8525 0 -19.6592 8.80762 -19.6592 19.6592
s8.80664 19.6582 19.6592 19.6582c10.8516 0 19.6582 -8.80664 19.6582 -19.6582zM102.204 346.08c0.106445 5.34766 4.53223 9.6875 9.88086 9.6875h0.0908203h413.671c5.42578 0 9.8291 -4.4043 9.8291 -9.83008s-4.40332 -9.8291 -9.8291 -9.8291h-413.671h-0.0351562
c-5.48438 0 -9.93652 4.45117 -9.93652 9.93555v0.0361328zM535.552 247.502v-0.0908203c0 -5.3584 -4.34766 -9.78516 -9.70508 -9.88086h-413.671c-5.41895 0.0849609 -9.88672 4.55176 -9.97168 9.97168c0.106445 5.35645 4.54102 9.70508 9.89941 9.70508
c0.0195312 0 0.0527344 0 0.0722656 -0.000976562h413.671c0.0146484 0 0.0380859 0.000976562 0.0537109 0.000976562c5.32715 0 9.65137 -4.32422 9.65137 -9.65234v-0.0527344zM535.552 158.895c0.00195312 -0.0732422 0.00292969 -0.193359 0.00292969 -0.266602
c0 -5.35742 -4.34766 -9.70508 -9.7041 -9.70508h-0.00390625h-413.671c-5.42578 0 -9.8291 4.40332 -9.8291 9.8291c0 5.42676 4.40332 9.83008 9.8291 9.83008h413.671h0.0351562c5.33789 0 9.66992 -4.33203 9.66992 -9.66992v-0.0175781zM535.552 70.2881
c0.00195312 -0.0693359 0.00292969 -0.180664 0.00292969 -0.249023c0 -5.35938 -4.34961 -9.71484 -9.70801 -9.72266h-413.671c-5.42578 0 -9.8291 4.40332 -9.8291 9.8291s4.40332 9.8291 9.8291 9.8291h413.671
c0.0146484 0 0.0380859 0.000976562 0.0527344 0.000976562c5.32812 0 9.65234 -4.32422 9.65234 -9.65234v-0.0351562z" />
    <glyph glyph-name="uniF115" unicode="&#xf115;" 
d="M30.2734 32.3643c-1.03125 -0.147461 -2.71289 -0.266602 -3.75488 -0.266602c-14.6846 0 -26.6025 11.918 -26.6025 26.6035c0 1.05469 0.12207 2.75977 0.273438 3.80371v218.764c-0.0283203 0.234375 -0.0507812 0.616211 -0.0507812 0.852539
c0 1.47559 0.785156 3.57812 1.75391 4.69141l130.364 157.781v0c1.0459 1.62891 3.41895 3.32422 5.29785 3.78516h234.62c1.82324 -0.539062 4.19629 -2.23438 5.29785 -3.78516v0l132.446 -157.781c1.07324 -1.07812 1.94434 -3.18848 1.94434 -4.71094
c0 -0.230469 -0.0234375 -0.603516 -0.0527344 -0.833008v-218.744c0.0654297 -0.702148 0.118164 -1.84375 0.118164 -2.54883c0 -15.2705 -12.3926 -27.6631 -27.6631 -27.6631c-0.544922 0 -1.42773 0.0322266 -1.97168 0.0703125h-452.021v-0.0185547zM483.43 259.094
h-141.15c-7.18945 -35.0986 -50.708 -53.8486 -86.0898 -53.8486c-35.3828 0 -78.1436 18.7695 -85.334 53.8486h-141.717v-198.973h454.291v198.973zM35.0039 286.869h152.502c3.75391 -1.13477 6.89062 -5.2373 7.00098 -9.15723v0
c3.59473 -29.5547 31.7871 -44.6914 61.6826 -44.6914c29.8945 0 60.168 14.5498 63.5742 44.1045v0c0.118164 3.99316 3.33887 8.0957 7.18945 9.1582h152.313l-109.552 134.055h-226.862z" />
  </font>
</defs>
</svg>
