<svg version="1.1" xmlns="http://www.w3.org/2000/svg" xmlns:xlink="http://www.w3.org/1999/xlink"
	 viewBox="0 0 761.2 138.5" xml:space="preserve">
<style type="text/css">
	.st0{fill:#4A5563;}
</style>
<path class="st0" d="M112.7,19.5L112.7,19.5c-5.6-6.1-12.6-11-20.6-14.4c-8-3.4-17-5.2-26.7-5.2c-9.7,0-18.7,1.8-26.7,5.3
	c-8,3.5-15,8.4-20.7,14.6C12.3,26,7.9,33.4,4.7,41.7C1.6,50,0,59.1,0,68.8c0,9.7,1.6,18.7,4.6,27c3.1,8.3,7.5,15.6,13.2,21.7
	c5.7,6.1,12.6,10.9,20.6,14.4c7.9,3.4,16.9,5.2,26.6,5.2c9.8,0,18.9-1.8,26.9-5.3c8-3.5,15-8.4,20.7-14.5
	c5.7-6.1,10.1-13.4,13.2-21.8c3.1-8.3,4.6-17.4,4.6-27.1c0-9.7-1.6-18.8-4.6-27.1C122.7,33,118.3,25.6,112.7,19.5z M65.2,127.2
	c-8.1,0-15.6-1.5-22.2-4.4c-6.6-2.9-12.4-7.1-17.1-12.3c-4.7-5.3-8.5-11.5-11.1-18.7c-2.6-7.1-4-14.9-4-23.2c0-8.4,1.3-16.3,4-23.4
	c2.6-7.1,6.4-13.4,11.1-18.5c4.7-5.2,10.5-9.3,17.1-12.3c6.6-3,14.1-4.5,22.2-4.5c8.2,0,15.7,1.5,22.4,4.5c6.7,3,12.4,7.2,17.1,12.3
	c4.7,5.2,8.4,11.4,11,18.5c2.6,7.2,3.9,15,3.9,23.4c0,8.3-1.3,16.1-3.9,23.2c-2.6,7.1-6.3,13.4-11,18.6c-4.7,5.2-10.5,9.4-17.1,12.3
	C81,125.7,73.4,127.2,65.2,127.2z"/>
<path class="st0" d="M201.7,67.2l45.2-59.7c1-1.1,0.8-2.6-0.6-4.4C245.2,1.7,243.7,1,242,1c-1.3,0-3.3,0.6-5,3.2l-41.6,54.9
	L154.6,4.1c-0.7-0.9-1.5-1.6-2.5-2c-0.9-0.5-1.9-0.7-2.9-0.7c-1.8,0-3.3,0.7-4.4,2.1c-0.6,0.8-1.8,2.3-0.9,3.9l0.1,0.1l45,59.7
	l-46.6,62.1c-0.7,0.8-1.1,2.1,0.5,4.2c1,1.4,2.5,2.1,4.2,2.1c1,0,1.9-0.2,2.7-0.6c0.8-0.4,1.6-1.2,2.5-2.4l43-57.6l42.6,57.4
	c1.8,2.5,3.9,3,5.4,3c1.8,0,3.3-0.7,4.4-2.1c1.5-2,1.2-3.4,0.6-4.3L201.7,67.2z"/>
<path class="st0" d="M359.4,2.6h-75.2c-6.3,0-7.2,3.6-7.2,5.8v122c0,3.8,3.3,6.2,5.6,6.2h1c2.1,0,4.4-1.9,4.4-6.2V76.6h51.8
	c3.8,0,5.2-2.9,5.2-5.4v-0.4c0-1.6-0.7-4.2-5.2-4.2H288v-54h71.4c1.7,0,4.6-0.7,4.6-5.4V6.4C364,3.7,362.6,2.6,359.4,2.6z"/>
<path class="st0" d="M487.1,19.5L487.1,19.5c-5.6-6.1-12.6-11-20.6-14.4c-8-3.4-17-5.2-26.7-5.2c-9.7,0-18.7,1.8-26.7,5.3
	c-8,3.5-15,8.4-20.7,14.6c-5.7,6.2-10.2,13.5-13.3,21.9c-3.1,8.3-4.7,17.4-4.7,27.1c0,9.7,1.6,18.7,4.6,27
	c3.1,8.3,7.5,15.6,13.2,21.7c5.7,6.1,12.6,10.9,20.6,14.4c7.9,3.4,16.9,5.2,26.6,5.2c9.8,0,18.9-1.8,26.9-5.3
	c8-3.5,15-8.4,20.7-14.5c5.7-6.1,10.1-13.4,13.2-21.8c3.1-8.3,4.6-17.4,4.6-27.1c0-9.7-1.6-18.8-4.6-27.1
	C497.1,33,492.7,25.6,487.1,19.5z M439.6,127.2c-8.1,0-15.6-1.5-22.2-4.4c-6.6-2.9-12.4-7.1-17.1-12.3c-4.7-5.3-8.5-11.5-11.1-18.7
	c-2.6-7.1-4-14.9-4-23.2c0-8.4,1.3-16.3,4-23.4c2.6-7.1,6.4-13.4,11.1-18.5c4.7-5.2,10.5-9.3,17.1-12.3c6.6-3,14.1-4.5,22.2-4.5
	c8.2,0,15.7,1.5,22.4,4.5c6.7,3,12.4,7.2,17.1,12.3c4.7,5.2,8.4,11.4,11,18.5c2.6,7.2,3.9,15,3.9,23.4c0,8.3-1.3,16.1-3.9,23.2
	c-2.6,7.1-6.3,13.4-11,18.6c-4.7,5.2-10.5,9.4-17.1,12.3C455.3,125.7,447.8,127.2,439.6,127.2z"/>
<path class="st0" d="M756.2,40.6c-3.3-8.2-8.1-15.2-14.3-21c-5.8-5.4-13.3-9.6-22.7-12.8c-8.2-2.8-18.1-4.1-30.2-4.1h-30.6
	c-6.4,0-7.4,3.6-7.4,5.8v120.2c0,4,3.2,7,7.4,7H688c11,0,21.3-1.6,30.6-4.8c8.9-3,16.7-7.6,23-13.4c6.2-5.8,11.1-12.9,14.5-21.3
	c3.3-8.3,5-17.6,5-27.9S759.5,48.7,756.2,40.6z M688.4,125.6H662v-113h27c11,0,19.3,1.1,26.1,3.5c8,2.8,14.2,6.4,19.2,11
	c5.2,4.9,9.2,10.8,11.9,17.7c2.8,7,4.2,15,4.2,23.7c0,8.9-1.4,16.9-4.2,23.9c-2.7,6.9-6.8,12.9-12,17.8c-5.3,4.9-11.9,8.8-19.4,11.4
	C707,124.2,698.1,125.6,688.4,125.6z"/>
<path class="st0" d="M620.9,39.1c-0.4-21.2-18.5-38.4-40.4-38.4H542c-3.4,0-7,1.6-7,5v127.8c0,1.3,0.5,2.6,1.5,3.5l0.1,0.1
	c1.9,1.9,5.1,1.9,7,0l0,0c0.9-0.9,1.5-2.2,1.5-3.5l0-53.5l32.7,0.1l35,56.5c0.5,0.5,1.2,1,2,1.2v0c3.8,1.2,7.4-2.4,6.1-6.2
	c0,0-0.8-1.4-1.2-1.9L589.9,80c0,0,2.9-1.1,5.6-2.4c2.9-1.4,3.4-1.8,5.1-2.8C616.7,64.6,621.2,55.1,620.9,39.1z M611.1,40.3
	C611,55.5,599,67.6,581.9,69.6H545v-59h36.7C597.8,10.6,611,23.9,611.1,40.3z"/>
</svg>
