<svg xmlns="http://www.w3.org/2000/svg" xmlns:xlink="http://www.w3.org/1999/xlink" preserveAspectRatio="xMidYMid" width="20.656" height="20" viewBox="0 0 20.656 20">
  <defs>
    <style>
      .cls-1 {
        fill: #fff;
      }

      .cls-1, .cls-2 {
        fill-rule: evenodd;
      }

      .cls-2 {
        fill: #3fc5fa;
      }
    </style>
  </defs>
  <g>
    <path d="M20.000,7.875 L20.000,14.000 C20.000,17.314 17.314,20.000 14.000,20.000 L6.000,20.000 C2.686,20.000 -0.000,17.314 -0.000,14.000 L-0.000,6.000 C-0.000,2.686 2.686,-0.000 6.000,-0.000 L14.000,-0.000 C14.713,-0.000 16.031,0.352 16.031,0.352 L14.000,2.000 L6.000,2.000 C3.791,2.000 2.000,3.791 2.000,6.000 L2.000,14.000 C2.000,16.209 3.791,18.000 6.000,18.000 L14.000,18.000 C16.209,18.000 18.000,16.209 18.000,14.000 L18.000,9.063 L20.000,7.875 Z" class="cls-1"/>
    <path d="M20.055,1.736 L19.626,1.362 C18.915,0.740 17.847,0.809 17.219,1.518 L10.052,9.601 L7.888,7.705 C7.178,7.083 6.109,7.151 5.480,7.859 L5.102,8.285 C4.794,8.630 4.635,9.086 4.658,9.552 C4.681,10.017 4.885,10.454 5.226,10.766 L9.191,14.460 C9.535,14.788 9.995,14.959 10.465,14.934 C10.935,14.908 11.375,14.689 11.682,14.326 L20.238,4.214 C20.537,3.861 20.686,3.401 20.651,2.936 C20.617,2.471 20.402,2.040 20.055,1.736 Z" class="cls-2"/>
  </g>
</svg>
